<svg viewBox="0 0 48 41" fill="none" xmlns="http://www.w3.org/2000/svg">
  <path d="M15.995 28.2161C15.059 28.2161 14.237 28.0301 13.529 27.6581C12.821 27.2741 12.281 26.7941 11.909 26.2181L12.611 25.6061C13.391 26.7221 14.513 27.2801 15.977 27.2801C16.901 27.2801 17.633 27.0521 18.173 26.5961C18.725 26.1401 19.001 25.5161 19.001 24.7241C19.001 23.9081 18.701 23.3021 18.101 22.9061C17.513 22.4981 16.739 22.2941 15.779 22.2941C15.155 22.2941 14.783 22.3001 14.663 22.3121V21.3401C14.783 21.3521 15.155 21.3581 15.779 21.3581C16.643 21.3581 17.363 21.1661 17.939 20.7821C18.527 20.3981 18.821 19.8281 18.821 19.0721C18.821 18.3521 18.545 17.7881 17.993 17.3801C17.441 16.9601 16.757 16.7501 15.941 16.7501C14.705 16.7501 13.631 17.2601 12.719 18.2801L12.071 17.6321C13.067 16.4201 14.375 15.8141 15.995 15.8141C17.087 15.8141 18.005 16.0961 18.749 16.6601C19.493 17.2241 19.865 17.9981 19.865 18.9821C19.865 19.5461 19.715 20.0441 19.415 20.4761C19.115 20.9081 18.785 21.2201 18.425 21.4121C18.065 21.5921 17.687 21.7181 17.291 21.7901C17.939 21.8621 18.557 22.1561 19.145 22.6721C19.745 23.1881 20.045 23.8901 20.045 24.7781C20.045 25.7861 19.679 26.6141 18.947 27.2621C18.227 27.8981 17.243 28.2161 15.995 28.2161ZM26.578 28.2161C25.954 28.2161 25.39 28.1021 24.886 27.8741C24.382 27.6461 23.962 27.3401 23.626 26.9561C23.29 26.5721 23.008 26.1161 22.78 25.5881C22.564 25.0481 22.408 24.4841 22.312 23.8961C22.216 23.3081 22.168 22.6781 22.168 22.0061C22.168 21.3701 22.216 20.7641 22.312 20.1881C22.42 19.6001 22.594 19.0361 22.834 18.4961C23.074 17.9561 23.362 17.4941 23.698 17.1101C24.046 16.7141 24.484 16.4021 25.012 16.1741C25.54 15.9341 26.122 15.8141 26.758 15.8141C28.102 15.8141 29.182 16.3241 29.998 17.3441L29.386 18.1001C28.726 17.2001 27.85 16.7501 26.758 16.7501C26.134 16.7501 25.582 16.9061 25.102 17.2181C24.634 17.5181 24.268 17.9261 24.004 18.4421C23.74 18.9581 23.542 19.5161 23.41 20.1161C23.278 20.7161 23.212 21.3521 23.212 22.0241C23.212 22.2761 23.218 22.4621 23.23 22.5821C23.53 22.0901 24.004 21.6341 24.652 21.2141C25.3 20.7941 25.996 20.5841 26.74 20.5841C27.88 20.5841 28.81 20.9141 29.53 21.5741C30.25 22.2221 30.61 23.1581 30.61 24.3821C30.61 25.4261 30.244 26.3261 29.512 27.0821C28.78 27.8381 27.802 28.2161 26.578 28.2161ZM26.542 27.2801C27.49 27.2801 28.228 26.9861 28.756 26.3981C29.296 25.7981 29.566 25.1321 29.566 24.4001C29.566 23.4521 29.29 22.7321 28.738 22.2401C28.186 21.7481 27.46 21.5021 26.56 21.5021C25.912 21.5021 25.288 21.6941 24.688 22.0781C24.1 22.4501 23.632 22.9421 23.284 23.5541C23.332 24.1661 23.464 24.7361 23.68 25.2641C23.896 25.7921 24.25 26.2601 24.742 26.6681C25.234 27.0761 25.834 27.2801 26.542 27.2801ZM39.1597 27.6581C38.5717 28.0301 37.8937 28.2161 37.1257 28.2161C36.3577 28.2161 35.6737 28.0301 35.0737 27.6581C34.4737 27.2861 34.0057 26.7941 33.6697 26.1821C33.3457 25.5581 33.0997 24.8981 32.9317 24.2021C32.7637 23.4941 32.6797 22.7621 32.6797 22.0061C32.6797 21.2501 32.7637 20.5241 32.9317 19.8281C33.0997 19.1201 33.3457 18.4601 33.6697 17.8481C34.0057 17.2361 34.4677 16.7441 35.0557 16.3721C35.6557 16.0001 36.3457 15.8141 37.1257 15.8141C37.8937 15.8141 38.5717 16.0001 39.1597 16.3721C39.7477 16.7441 40.2097 17.2361 40.5457 17.8481C40.8817 18.4601 41.1337 19.1201 41.3017 19.8281C41.4697 20.5241 41.5537 21.2501 41.5537 22.0061C41.5537 22.7501 41.4697 23.4761 41.3017 24.1841C41.1337 24.8921 40.8817 25.5581 40.5457 26.1821C40.2097 26.7941 39.7477 27.2861 39.1597 27.6581ZM37.1257 27.2801C37.7257 27.2801 38.2477 27.1241 38.6917 26.8121C39.1477 26.5001 39.4957 26.0861 39.7357 25.5701C39.9877 25.0421 40.1677 24.4841 40.2757 23.8961C40.3957 23.2961 40.4557 22.6661 40.4557 22.0061C40.4557 21.3461 40.3957 20.7221 40.2757 20.1341C40.1677 19.5341 39.9877 18.9761 39.7357 18.4601C39.4957 17.9321 39.1477 17.5181 38.6917 17.2181C38.2477 16.9061 37.7257 16.7501 37.1257 16.7501C36.5137 16.7501 35.9797 16.9061 35.5237 17.2181C35.0797 17.5181 34.7317 17.9321 34.4797 18.4601C34.2397 18.9761 34.0597 19.5341 33.9397 20.1341C33.8197 20.7221 33.7597 21.3461 33.7597 22.0061C33.7597 22.6661 33.8197 23.2961 33.9397 23.8961C34.0597 24.4841 34.2397 25.0421 34.4797 25.5701C34.7317 26.0861 35.0797 26.5001 35.5237 26.8121C35.9797 27.1241 36.5137 27.2801 37.1257 27.2801ZM46.6009 16.4441C47.0089 16.8521 47.2129 17.3441 47.2129 17.9201C47.2129 18.4961 47.0089 18.9881 46.6009 19.3961C46.1929 19.7921 45.6949 19.9901 45.1069 19.9901C44.5309 19.9901 44.0389 19.7921 43.6309 19.3961C43.2349 18.9881 43.0369 18.4961 43.0369 17.9201C43.0369 17.3441 43.2349 16.8521 43.6309 16.4441C44.0389 16.0241 44.5309 15.8141 45.1069 15.8141C45.6949 15.8141 46.1929 16.0241 46.6009 16.4441ZM46.5109 17.9201C46.5109 17.5361 46.3729 17.2061 46.0969 16.9301C45.8209 16.6541 45.4909 16.5161 45.1069 16.5161C44.7349 16.5161 44.4109 16.6541 44.1349 16.9301C43.8709 17.2061 43.7389 17.5361 43.7389 17.9201C43.7389 18.3041 43.8709 18.6281 44.1349 18.8921C44.3989 19.1561 44.7229 19.2881 45.1069 19.2881C45.4909 19.2881 45.8209 19.1561 46.0969 18.8921C46.3729 18.6161 46.5109 18.2921 46.5109 17.9201Z" fill="white"/>
  <path d="M32.1496 8.11787L25.0134 7.51383L29.1046 1.63569L32.1496 8.11787Z" fill="white"/>
  <path d="M28.806 37.4892C25.9511 39.1508 22.7034 40.0177 19.4002 39.9999C16.0971 39.982 12.8589 39.0801 10.0221 37.3878C7.18533 35.6955 4.85339 33.2746 3.26851 30.3764C1.68363 27.4782 0.903637 24.2086 1.00954 20.907C1.11543 17.6055 2.10337 14.3926 3.87072 11.6019C5.63807 8.81126 8.12037 6.5447 11.0598 5.03768C13.9992 3.53065 17.2885 2.83812 20.586 3.03203C23.8835 3.22593 27.069 4.2992 29.8115 6.14034" stroke="white"/>
</svg>
