<svg class="menu__close-ico" viewBox="0 0 18 18" fill="none" xmlns="http://www.w3.org/2000/svg">
  <path d="M16.875 1.13754C16.7594 1.02166 16.622 0.929721 16.4708 0.866995C16.3196 0.804268 16.1575 0.77198 15.9938 0.77198C15.83 0.77198 15.6679 0.804268 15.5167 0.866995C15.3655 0.929721 15.2281 1.02166 15.1125 1.13754L9.00001 7.23753L2.88751 1.12504C2.77178 1.00931 2.63439 0.917508 2.48318 0.854876C2.33198 0.792245 2.16992 0.76001 2.00626 0.76001C1.84259 0.76001 1.68053 0.792245 1.52933 0.854876C1.37812 0.917508 1.24073 1.00931 1.125 1.12504C1.00928 1.24076 0.917477 1.37815 0.854846 1.52936C0.792215 1.68056 0.759979 1.84262 0.759979 2.00629C0.759979 2.16995 0.792215 2.33201 0.854846 2.48321C0.917477 2.63442 1.00928 2.77181 1.125 2.88753L7.23751 9.00003L1.125 15.1125C1.00928 15.2283 0.917477 15.3656 0.854846 15.5169C0.792215 15.6681 0.759979 15.8301 0.759979 15.9938C0.759979 16.1574 0.792215 16.3195 0.854846 16.4707C0.917477 16.6219 1.00928 16.7593 1.125 16.875C1.24073 16.9908 1.37812 17.0826 1.52933 17.1452C1.68053 17.2078 1.84259 17.2401 2.00626 17.2401C2.16992 17.2401 2.33198 17.2078 2.48318 17.1452C2.63439 17.0826 2.77178 16.9908 2.88751 16.875L9.00001 10.7625L15.1125 16.875C15.2282 16.9908 15.3656 17.0826 15.5168 17.1452C15.668 17.2078 15.8301 17.2401 15.9938 17.2401C16.1574 17.2401 16.3195 17.2078 16.4707 17.1452C16.6219 17.0826 16.7593 16.9908 16.875 16.875C16.9907 16.7593 17.0825 16.6219 17.1452 16.4707C17.2078 16.3195 17.24 16.1574 17.24 15.9938C17.24 15.8301 17.2078 15.6681 17.1452 15.5169C17.0825 15.3656 16.9907 15.2283 16.875 15.1125L10.7625 9.00003L16.875 2.88753C17.35 2.41253 17.35 1.61254 16.875 1.13754V1.13754Z" fill="white"/>
</svg>