<svg width="158" height="504" viewBox="0 0 158 504" fill="none" xmlns="http://www.w3.org/2000/svg">
  <path d="M2.00014 361L1.99997 433.5" stroke="white" stroke-width="2" stroke-linecap="round"/>
  <path d="M40.4995 242.5V283.5" stroke="white" stroke-width="2" stroke-linecap="round"/>
  <path d="M40.4995 194V235" stroke="white" stroke-width="2" stroke-linecap="round"/>
  <path d="M121.501 399L121.5 427.5" stroke="white" stroke-width="2" stroke-linecap="round"/>
  <path d="M121.5 434.8L121.5 464.5" stroke="white" stroke-width="2" stroke-linecap="round"/>
  <path d="M121.5 471.903L121.5 502.5" stroke="white" stroke-width="2" stroke-linecap="round"/>
  <path d="M121.501 363L121.5 391.5" stroke="white" stroke-width="2" stroke-linecap="round"/>
  <path d="M58.1703 288.207L100.218 292.207L120.671 354.708" stroke="white" stroke-width="2" stroke-linecap="round"/>
  <path d="M20.9995 284.5L1.89292 282.5L1.8927 352.5" stroke="white" stroke-width="2" stroke-linecap="round"/>
  <path d="M40.4995 121.5V185.5" stroke="white" stroke-width="2" stroke-linecap="round"/>
  <path d="M32.5 118L10 118" stroke="white" stroke-width="2" stroke-linecap="round"/>
  <path d="M102.09 133.352L120.916 124.567V68.7158M102.09 133.352L76.9887 130.842L68.8307 128.959H58.79L60.9864 113.271L63.1828 86.2869V71.2259M102.09 133.352V75.3049M120.916 68.7158L111.503 69.9708L102.09 75.3049M120.916 68.7158L107.111 67.4607L76.9887 64.9505L71.3408 64.323L65.0654 64.9505V68.7158L63.1828 71.2259M102.09 75.3049L63.1828 71.2259" stroke="white" stroke-width="1.5"/>
  <path d="M114.641 67.4611V58.3618L124.995 52.7139H135.35M135.35 52.7139V82.2082L157 85.9735V95.3866L142.566 101.662L120.603 112.33V68.7162L83.2641 65.2647L80.4401 55.2241L79.1851 48.3211L83.2641 47.6936L135.35 52.7139Z" stroke="white" stroke-width="1.5"/>
  <path fill-rule="evenodd" clip-rule="evenodd" d="M58.79 132.097H52.8284V115.467L39.9639 122.37L32.1196 118.605L32.1194 118.605V79.3835L24.2751 112.016L24.416 112.368L24.2754 112.329H18L32.1196 66.2053V60.2437V22.9051L42.7878 19.7674V16.3159V3.4514L49.0632 -6.10352e-05L71.027 1.56879L71.3408 16.3159L79.185 48.0067L82.0089 61.4987L83.264 65.5777L71.3408 64.3227L65.0654 64.9502L64.7516 68.4017L63.4966 71.5394L60.6726 113.271L58.79 132.097ZM28.9819 119.86L28.9819 119.86H28.9822L28.9819 119.86ZM65.3791 63.6954L67.5755 38.5938L72.282 37.6525L79.4987 64.3229L72.282 63.6954L65.3791 64.3229V63.6954ZM59.4173 42.0451L50.9455 41.1038V55.5371L58.476 55.8509L59.4173 42.0451ZM50.3183 114.526L52.8285 115.467L58.1626 61.8124L50.3183 61.1849V114.526ZM71.6547 32.9459L70.3996 27.9255L65.3793 29.4944L50.3183 28.5531V32.9459L65.3793 34.5147L71.6547 32.9459ZM67.5752 18.1983L63.81 18.8259L43.7287 17.257V21.336L50.6317 21.9636V23.5324L65.065 24.4737L70.0854 22.9049L67.5752 18.1983Z" fill="white"/>
</svg>
