<svg width="123" height="466" viewBox="0 0 123 466" fill="none" xmlns="http://www.w3.org/2000/svg">
  <path d="M1.84157 325L1.84141 394.5" stroke="white" stroke-width="2" stroke-linecap="round"/>
  <path d="M121.001 361.5L121.001 390" stroke="white" stroke-width="2" stroke-linecap="round"/>
  <path d="M121.001 397.3L121.001 427" stroke="white" stroke-width="2" stroke-linecap="round"/>
  <path d="M121.001 434.403L121.001 465" stroke="white" stroke-width="2" stroke-linecap="round"/>
  <path d="M121.001 325.501L121.001 354.001" stroke="white" stroke-width="2" stroke-linecap="round"/>
  <path d="M57.6712 250.708L99.7192 254.708L120.172 317.208" stroke="white" stroke-width="2" stroke-linecap="round"/>
  <path d="M20.5007 247L1.39411 245L1.3939 318" stroke="white" stroke-width="2" stroke-linecap="round"/>
  <path d="M40.001 84.0001V148" stroke="white" stroke-width="2" stroke-linecap="round"/>
  <path d="M40 205V246" stroke="white" stroke-width="2" stroke-linecap="round"/>
  <path d="M40 156.5V197.5" stroke="white" stroke-width="2" stroke-linecap="round"/>
  <path d="M32.001 85.0001L9.50098 85.0001" stroke="white" stroke-width="2" stroke-linecap="round"/>
  <path d="M81.9979 96.0002L95.542 89.6755V49.4685M81.9979 96.0002L63.9392 94.1931L58.0702 92.8378H50.8467L52.4268 81.5437L54.007 62.1179V51.2756M81.9979 96.0002V54.212M95.542 49.4685L88.7699 50.372L81.9979 54.212M95.542 49.4685L85.6097 48.565L63.9392 46.7579L59.876 46.3062L55.3614 46.7579V49.4685L54.007 51.2756M81.9979 54.212L54.007 51.2756" stroke="white" stroke-width="1.5"/>
  <path d="M91.0265 48.5651V42.0146L98.4757 37.9487H105.925M105.925 37.9487V59.1816L121.501 61.8922V68.6686L111.117 73.1863L95.3154 80.8662V49.4687L68.4531 46.984L66.4215 39.7558L65.5186 34.7864L68.4531 34.3346L105.925 37.9487Z" stroke="white" stroke-width="1.5"/>
  <path fill-rule="evenodd" clip-rule="evenodd" d="M50.8464 95.0964H46.5574V83.1246L37.3023 88.094L31.659 85.3834L31.659 57.1482L26.0156 80.6399L26.117 80.8935L26.0157 80.8658H21.501L31.659 47.6612V43.3694V16.4895L39.3339 14.2307V11.746V2.48482L43.8486 0.00012207L59.65 1.12953L59.8757 11.746L65.5191 34.56L67.5507 44.273L68.4536 47.2094L59.8757 46.3059L55.361 46.7577L55.1353 49.2424L54.2324 51.5012L52.2008 81.5434L50.8464 95.0964ZM55.5869 45.8543L57.167 27.7837L60.5531 27.1061L65.7449 46.306L60.5531 45.8543L55.5869 46.306V45.8543ZM51.2979 30.2683L45.2031 29.5907V39.9813L50.6207 40.2071L51.2979 30.2683ZM44.752 82.4469L46.5578 83.1245L50.3953 44.4988L44.752 44.047V82.4469ZM60.1018 23.7179L59.1989 20.1038L55.5872 21.2332L44.752 20.5555V23.7179L55.5872 24.8473L60.1018 23.7179ZM57.1665 13.1011L54.4577 13.5529L40.0107 12.4235V15.3599L44.9769 15.8117V16.9411L55.3606 17.6187L58.9724 16.4893L57.1665 13.1011Z" fill="white"/>
</svg>
