<svg width="140" height="135" viewBox="0 0 140 135" fill="none" xmlns="http://www.w3.org/2000/svg">
  <path d="M84.0902 133.352L102.916 124.567V68.7158M84.0902 133.352L58.9887 130.842L50.8307 128.96H40.79L42.9864 113.271L45.1828 86.2869V71.226M84.0902 133.352V75.305M102.916 68.7158L93.5033 69.9709L84.0902 75.305M102.916 68.7158L89.1105 67.4608L58.9887 64.9506L53.3408 64.3231L47.0654 64.9506V68.7158L45.1828 71.226M84.0902 75.305L45.1828 71.226" stroke="white" stroke-width="1.5"/>
  <path d="M96.641 67.4611V58.3618L106.995 52.7139H117.35M117.35 52.7139V82.2083L139 85.9735V95.3866L124.566 101.662L102.603 112.33V68.7162L65.2641 65.2647L62.4401 55.2241L61.1851 48.3212L65.2641 47.6936L117.35 52.7139Z" stroke="white" stroke-width="1.5"/>
  <path fill-rule="evenodd" clip-rule="evenodd" d="M40.79 132.097H34.8284V115.467L21.9639 122.37L14.1196 118.605L14.1194 118.605V79.3835L6.27515 112.016L6.41604 112.368L6.27539 112.329H0L14.1196 66.2053V60.2437V22.9052L24.7878 19.7675V16.316V3.45146L31.0632 0L53.027 1.56885L53.3408 16.316L61.185 48.0067L64.0089 61.4988L65.264 65.5778L53.3408 64.3227L47.0654 64.9503L46.7516 68.4017L45.4966 71.5394L42.6726 113.271L40.79 132.097ZM10.9819 119.86L10.9819 119.86H10.9822L10.9819 119.86ZM47.3791 63.6955L49.5755 38.5939L54.282 37.6526L61.4987 64.323L54.282 63.6955L47.3791 64.323V63.6955ZM41.4173 42.0451L32.9455 41.1038V55.5372L40.476 55.851L41.4173 42.0451ZM32.3183 114.526L34.8285 115.467L40.1626 61.8125L32.3183 61.185V114.526ZM53.6547 32.9459L52.3996 27.9256L47.3793 29.4945L32.3183 28.5531V32.9459L47.3793 34.5148L53.6547 32.9459ZM49.5752 18.1984L45.81 18.8259L25.7287 17.2571V21.3361L32.6317 21.9636V23.5325L47.065 24.4738L52.0854 22.9049L49.5752 18.1984Z" fill="white"/>
</svg>
