<svg width="205" height="775" viewBox="0 0 205 775" fill="none" xmlns="http://www.w3.org/2000/svg">
  <path d="M2.0004 399.5L2.00027 489.5" stroke="white" stroke-width="2" stroke-linecap="round"/>
  <path d="M40.5 281V322" stroke="white" stroke-width="2" stroke-linecap="round"/>
  <path d="M40.5 232.5V273.5" stroke="white" stroke-width="2" stroke-linecap="round"/>
  <path d="M121.501 499.5L121.501 589.5" stroke="white" stroke-width="2" stroke-linecap="round"/>
  <path d="M121.502 597.3L121.501 687" stroke="white" stroke-width="2" stroke-linecap="round"/>
  <path d="M121.502 694.403L121.502 773.5" stroke="white" stroke-width="2" stroke-linecap="round"/>
  <path d="M121.501 402.5L121.501 492.5" stroke="white" stroke-width="2" stroke-linecap="round"/>
  <path d="M58.1703 326.707L100.218 330.707L120.671 393.208" stroke="white" stroke-width="2" stroke-linecap="round"/>
  <path d="M20.9995 323L1.89292 321L1.8927 391" stroke="white" stroke-width="2" stroke-linecap="round"/>
  <path d="M40.5 160V224" stroke="white" stroke-width="2" stroke-linecap="round"/>
  <path d="M38.5 156.5L10 156.5" stroke="white" stroke-width="2" stroke-linecap="round"/>
  <path d="M130.523 178L155.715 166.273V91.7226M130.523 178L96.9342 174.649L86.0177 172.137H72.582L75.5211 151.195L78.4601 115.177V95.0732M130.523 178V100.518M155.715 91.7226L143.119 93.3979L130.523 100.518M155.715 91.7226L137.241 90.0474L96.9342 86.6968L89.3766 85.8591L80.9793 86.6968V91.7226L78.4601 95.0732M130.523 100.518L78.4601 95.0732" stroke="white" stroke-width="1.5"/>
  <path d="M147.318 90.0477V77.9018L161.173 70.363H175.029M175.029 70.363V109.732L204 114.758V127.323L184.686 135.699L155.295 149.939V91.723L105.331 87.1159L101.553 73.7136L99.873 64.4995L105.331 63.6619L175.029 70.363Z" stroke="white" stroke-width="1.5"/>
  <path fill-rule="evenodd" clip-rule="evenodd" d="M72.5824 176.324H64.605V154.127L47.3905 163.341L36.8939 158.315L36.8936 158.315V105.962L26.397 149.52L26.5855 149.99L26.3973 149.938H18L36.8939 88.3716V80.4139V30.574L51.1693 26.3858V21.7788V4.60705L59.5666 0L88.9571 2.09411L89.377 21.7788L99.8736 64.0798L103.652 82.0892L105.332 87.5339L89.377 85.8586L80.9797 86.6963L80.5599 91.3033L78.8804 95.4915L75.1016 151.195L72.5824 176.324ZM32.6953 159.99L32.6952 159.99H32.6956L32.6953 159.99ZM81.3994 85.0213L84.3385 51.5155L90.6365 50.2591L100.293 85.859L90.6365 85.0213L81.3994 85.859V85.0213ZM73.4218 56.1222L62.0854 54.8658V74.1316L72.1622 74.5504L73.4218 56.1222ZM61.2462 152.87L64.6051 154.127L71.7428 82.5079L61.2462 81.6703V152.87ZM89.797 43.9765L88.1175 37.2754L81.3997 39.3695L61.2462 38.113V43.9765L81.3997 46.0707L89.797 43.9765ZM84.3382 24.2914L79.2998 25.1291L52.4284 23.035V28.4796L61.6655 29.3173V31.4114L80.9792 32.6679L87.6971 30.5738L84.3382 24.2914Z" fill="white"/>
</svg>
