<svg width="158" height="407" viewBox="0 0 158 407" fill="none" xmlns="http://www.w3.org/2000/svg">
  <path d="M40.5 212V235" stroke="white" stroke-width="2" stroke-linecap="round"/>
  <path d="M2.34115 272L2.34153 335" stroke="white" stroke-width="2" stroke-linecap="round"/>
  <path d="M40.5 181V204" stroke="white" stroke-width="2" stroke-linecap="round"/>
  <path d="M121.501 320.5L121.501 344" stroke="white" stroke-width="2" stroke-linecap="round"/>
  <path d="M121.501 351.5L121.501 375" stroke="white" stroke-width="2" stroke-linecap="round"/>
  <path d="M121.501 382.5L121.501 406" stroke="white" stroke-width="2" stroke-linecap="round"/>
  <path d="M121.501 288L121.501 313.5" stroke="white" stroke-width="2" stroke-linecap="round"/>
  <path d="M58.1715 239.207L101.502 245.5L121.001 279.5" stroke="white" stroke-width="2" stroke-linecap="round"/>
  <path d="M21.501 234.5L1.50005 231.5L1.89304 264" stroke="white" stroke-width="2" stroke-linecap="round"/>
  <path d="M40.501 121.5L40.501 173" stroke="white" stroke-width="2" stroke-linecap="round"/>
  <path d="M32.501 118L10.001 118" stroke="white" stroke-width="2" stroke-linecap="round"/>
  <path d="M102.091 133.352L120.917 124.567V68.7156M102.091 133.352L76.9896 130.842L68.8316 128.959H58.791L60.9874 113.271L63.1838 86.2867V71.2258M102.091 133.352V75.3048M120.917 68.7156L111.504 69.9707L102.091 75.3048M120.917 68.7156L107.112 67.4606L76.9896 64.9504L71.3418 64.3229L65.0664 64.9504V68.7156L63.1838 71.2258M102.091 75.3048L63.1838 71.2258" stroke="white" stroke-width="1.5"/>
  <path d="M114.641 67.461V58.3616L124.996 52.7138H135.35M135.35 52.7138V82.2081L157 85.9733V95.3864L142.567 101.662L120.603 112.33V68.716L83.2645 65.2646L80.4406 55.2239L79.1855 48.321L83.2645 47.6935L135.35 52.7138Z" stroke="white" stroke-width="1.5"/>
  <path fill-rule="evenodd" clip-rule="evenodd" d="M58.791 132.097H52.8294V115.467L39.9648 122.37L32.1206 118.605L32.1204 118.605V79.3834L24.2761 112.015L24.417 112.368L24.2764 112.329H18.001L32.1206 66.2052V60.2436V22.905L42.7888 19.7673V16.3159V3.45134L49.0641 -0.00012207L71.028 1.56872L71.3418 16.3159L79.186 48.0066L82.0099 61.4987L83.265 65.5777L71.3418 64.3226L65.0664 64.9501L64.7526 68.4016L63.4975 71.5393L60.6736 113.271L58.791 132.097ZM28.9829 119.86L28.9829 119.86H28.9832L28.9829 119.86ZM65.3801 63.6953L67.5764 38.5938L72.283 37.6525L79.4997 64.3229L72.283 63.6953L65.3801 64.3229V63.6953ZM59.4183 42.045L50.9465 41.1037V55.5371L58.477 55.8509L59.4183 42.045ZM50.3193 114.526L52.8295 115.467L58.1636 61.8124L50.3193 61.1848V114.526ZM71.6556 32.9458L70.4006 27.9255L65.3803 29.4943L50.3193 28.553V32.9458L65.3803 34.5146L71.6556 32.9458ZM67.5762 18.1983L63.811 18.8258L43.7297 17.257V21.336L50.6326 21.9635V23.5324L65.066 24.4737L70.0863 22.9048L67.5762 18.1983Z" fill="white"/>
</svg>
