<svg viewBox="0 0 41 14" fill="none" xmlns="http://www.w3.org/2000/svg">
  <path d="M40.001 7C40.001 7.67307 39.5812 8.39858 38.6246 9.13362C37.6752 9.86318 36.2699 10.5418 34.4886 11.1207C30.9315 12.2767 25.9861 13 20.501 13C15.0159 13 10.0704 12.2767 6.51338 11.1207C4.73209 10.5418 3.32679 9.86318 2.37732 9.13362C1.42072 8.39858 1.00098 7.67307 1.00098 7C1.00098 6.32693 1.42072 5.60142 2.37732 4.86638C3.32679 4.13682 4.73209 3.45824 6.51338 2.87932C10.0704 1.72328 15.0159 1 20.501 1C25.9861 1 30.9315 1.72328 34.4886 2.87932C36.2699 3.45824 37.6752 4.13682 38.6246 4.86638C39.5812 5.60142 40.001 6.32693 40.001 7Z" fill="var(--color-path)" fill-opacity="0.4" stroke="var(--color-path)"/>
  <ellipse cx="20.501" cy="7" rx="6" ry="1.5" fill="var(--color-ellipse)"/>
</svg>