<svg width="41" height="13" viewBox="0 0 41 13" fill="none" xmlns="http://www.w3.org/2000/svg">
  <path d="M40.001 6.5C40.001 7.17307 39.5812 7.89858 38.6246 8.63362C37.6752 9.36318 36.2699 10.0418 34.4886 10.6207C30.9315 11.7767 25.9861 12.5 20.501 12.5C15.0159 12.5 10.0704 11.7767 6.51338 10.6207C4.73209 10.0418 3.32679 9.36318 2.37732 8.63362C1.42072 7.89858 1.00098 7.17307 1.00098 6.5C1.00098 5.82693 1.42072 5.10142 2.37732 4.36638C3.32679 3.63682 4.73209 2.95824 6.51338 2.37932C10.0704 1.22328 15.0159 0.5 20.501 0.5C25.9861 0.5 30.9315 1.22328 34.4886 2.37932C36.2699 2.95824 37.6752 3.63682 38.6246 4.36638C39.5812 5.10142 40.001 5.82693 40.001 6.5Z" fill="var(--color-path)" fill-opacity="0.4" stroke="var(--color-path)"/>
  <ellipse cx="20.501" cy="6.5" rx="6" ry="1.5" fill="var(--color-ellipse)"/>
</svg>

