<svg width="16" height="224" viewBox="0 0 16 224" fill="none" xmlns="http://www.w3.org/2000/svg">
  <path d="M9.96691 29.249C10.0228 29.0992 9.96691 28.8493 9.96691 28.8493C9.91104 28.6495 9.68755 28.4497 9.40819 28.2998C8.62598 27.9001 7.34093 27.9001 6.61459 28.2998C6.22349 28.4996 6 28.7994 6 28.9992V109.487V222.001C6 222.251 6.22349 222.55 6.61459 222.7C7.34093 223.1 8.68186 223.1 9.40819 222.7C9.91104 222.45 10.0787 222.101 9.96691 221.801V29.249Z" fill="white" stroke="#44688C" stroke-miterlimit="10"/>
  <path d="M9.1429 32.007L1.88576 28.5654L1.82861 10.4396L9.08576 14.6269L9.1429 32.007Z" fill="#053354"/>
  <path d="M7.82858 0.631018L15.0857 4.87566C14.8571 4.76094 14.5714 4.76094 14.2286 4.93302L6.97144 0.745739C7.31429 0.516298 7.60001 0.516298 7.82858 0.631018Z" fill="#053354"/>
  <path d="M14.2286 4.99036L6.97144 0.745714C7.02858 0.688354 7.08572 0.688354 7.14286 0.688354L14.4 4.933C14.3429 4.933 14.2857 4.933 14.2286 4.99036Z" fill="#053354"/>
  <path d="M14.4 4.87561L7.14282 0.630968C7.19997 0.630968 7.25711 0.573608 7.25711 0.573608L14.5143 4.81825C14.5143 4.87561 14.4571 4.87561 14.4 4.87561Z" fill="#053354"/>
  <path d="M14.5142 4.81827L7.25708 0.630981C7.31422 0.630981 7.31422 0.630981 7.37137 0.630981L14.6285 4.87563C14.6285 4.81827 14.5714 4.81827 14.5142 4.81827Z" fill="#053354"/>
  <path d="M14.6285 4.81825L7.37134 0.573608C7.42848 0.573608 7.42848 0.573608 7.48562 0.573608L14.7428 4.81825C14.6856 4.81825 14.6856 4.81825 14.6285 4.81825Z" fill="#053354"/>
  <path d="M14.743 4.81825L7.48584 0.573608H7.54298L14.8001 4.81825H14.743Z" fill="#053354"/>
  <path d="M14.8001 4.81825L7.54297 0.573608H7.60011L14.8573 4.81825H14.8001Z" fill="#053354"/>
  <path d="M14.8572 4.81825L7.6001 0.573608H7.65724L14.9144 4.81825C14.9144 4.81825 14.9144 4.81825 14.8572 4.81825Z" fill="#053354"/>
  <path d="M14.9144 4.81825L7.71436 0.573608H7.7715L15.0286 4.81825C14.9715 4.81825 14.9715 4.81825 14.9144 4.81825Z" fill="#053354"/>
  <path d="M15.0286 4.87563L7.77148 0.630981C7.77148 0.630981 7.82863 0.630981 7.82863 0.688342L15.0858 4.93299C15.0286 4.87563 15.0286 4.87563 15.0286 4.87563Z" fill="#053354"/>
  <path d="M15.0858 4.87563L7.82861 0.630981L15.0858 4.87563Z" fill="#053354"/>
  <path d="M9.0858 14.6269L1.82866 10.4396L0.628662 6.13757L7.8858 10.3822L9.0858 14.6269Z" fill="#053354"/>
  <path d="M8.97148 7.97309L1.77148 3.78581L6.97148 0.745728L14.2286 4.99037L8.97148 7.97309Z" fill="#053354"/>
  <path d="M7.88581 10.3823L0.628669 6.13764C0.400097 5.39196 0.971526 4.1874 1.77153 3.72852L9.02867 7.97316C8.22867 8.43204 7.65724 9.6366 7.88581 10.3823Z" fill="#053354"/>
  <path d="M7.88582 10.3823L0.628676 6.13769C0.571533 5.96561 0.571533 5.79353 0.571533 5.56409L7.82868 9.80873C7.82868 10.0382 7.82868 10.2102 7.88582 10.3823Z" fill="#053354"/>
  <path d="M7.82868 9.80869L0.571533 5.56405C0.571533 5.50669 0.571533 5.44933 0.628676 5.39197L7.88582 9.63661C7.82868 9.69397 7.82868 9.75133 7.82868 9.80869Z" fill="#053354"/>
  <path d="M7.8858 9.6366L0.628662 5.44931C0.628662 5.39195 0.628662 5.33459 0.685805 5.33459L7.94295 9.57924C7.8858 9.57924 7.8858 9.57924 7.8858 9.6366Z" fill="#053354"/>
  <path d="M7.8858 9.52184L0.628662 5.2772C0.628662 5.21984 0.628662 5.21984 0.685805 5.16248L7.94295 9.40712C7.94295 9.40712 7.8858 9.46448 7.8858 9.52184Z" fill="#053354"/>
  <path d="M7.94293 9.40722L0.685791 5.16257C0.685791 5.10521 0.685791 5.10521 0.742934 5.04785L8.00008 9.2925C7.94293 9.2925 7.94293 9.34986 7.94293 9.40722Z" fill="#053354"/>
  <path d="M8.00006 9.29247L0.74292 5.04783C0.74292 4.99047 0.74292 4.99047 0.800063 4.93311L8.00006 9.17775C8.00006 9.23511 8.00006 9.23511 8.00006 9.29247Z" fill="#053354"/>
  <path d="M8.00006 9.17772L0.74292 4.93308C0.74292 4.87572 0.800063 4.87572 0.800063 4.81836L8.05721 9.063C8.05721 9.12036 8.05721 9.12036 8.00006 9.17772Z" fill="#053354"/>
  <path d="M8.05719 9.06298L0.800049 4.81833C0.800049 4.76097 0.857192 4.76097 0.857192 4.70361L8.11433 8.94826C8.11433 9.00562 8.05719 9.00562 8.05719 9.06298Z" fill="#053354"/>
  <path d="M8.11432 8.94824L0.857178 4.76096C0.857178 4.7036 0.914321 4.7036 0.914321 4.64624L8.17146 8.89088C8.17146 8.89088 8.11432 8.94824 8.11432 8.94824Z" fill="#053354"/>
  <path d="M8.17145 8.89098L0.914307 4.64634C0.914307 4.58898 0.97145 4.58898 0.97145 4.53162L8.22859 8.77626C8.22859 8.77626 8.17145 8.83362 8.17145 8.89098Z" fill="#053354"/>
  <path d="M8.22858 8.77623L0.971436 4.53159C0.971436 4.47423 1.02858 4.47423 1.02858 4.41687L8.28572 8.66151C8.28572 8.71887 8.22858 8.71887 8.22858 8.77623Z" fill="#053354"/>
  <path d="M8.28571 8.66149L1.02856 4.41684C1.02856 4.35948 1.08571 4.35948 1.08571 4.30212L8.34285 8.54677C8.34285 8.60413 8.34285 8.60413 8.28571 8.66149Z" fill="#053354"/>
  <path d="M8.40021 8.54674L1.14307 4.3021C1.14307 4.3021 1.20021 4.24474 1.20021 4.18738L8.45735 8.43202C8.45735 8.48938 8.40021 8.48938 8.40021 8.54674Z" fill="#053354"/>
  <path d="M8.45734 8.432L1.2002 4.18735C1.25734 4.12999 1.25734 4.07263 1.31448 4.07263L8.57162 8.31728C8.57162 8.37464 8.51448 8.37464 8.45734 8.432Z" fill="#053354"/>
  <path d="M8.62873 8.31733L1.37158 4.07269C1.48587 3.95797 1.60015 3.84325 1.77158 3.78589L9.02873 8.03053C8.8573 8.08789 8.74301 8.20261 8.62873 8.31733Z" fill="#053354"/>
  <path d="M14.2286 4.99039C15.0286 4.53151 15.6 5.04775 15.3715 6.08024L14.1715 11.7589L14.2286 29.0816L9.14291 32.007L9.08576 14.6842L7.82862 10.4396C7.60005 9.69392 8.17148 8.48936 8.97148 8.03048L14.2286 4.99039Z" fill="white"/>
  <path d="M7.48571 0.573601C7.54286 0.573601 7.54286 0.573601 7.48571 0.573601C7.54286 0.573601 7.6 0.573601 7.6 0.573601C7.6 0.573601 7.6 0.573601 7.65714 0.573601H7.71429C7.71429 0.573601 7.77143 0.573601 7.77143 0.630961L15.0286 4.87561H14.9714C15.3143 5.04769 15.4286 5.44921 15.3143 6.08017L14.1143 11.7588L14.1714 29.0816L9.14286 32.0069L1.88571 28.5653L1.82857 10.4395L0.571429 6.19489C0.571429 6.08017 0.571429 5.96545 0.571429 5.85073C0.571429 5.79337 0.571429 5.79337 0.571429 5.73601C0.571429 5.73601 0.571429 5.67865 0.571429 5.56393C0.571429 5.56393 0.571429 5.56393 0.571429 5.50657C0.571429 5.50657 0.571429 5.50657 0.571429 5.44921C0.571429 5.39185 0.571429 5.39185 0.571429 5.33449C0.571429 5.27713 0.571429 5.21977 0.628571 5.21977V5.16241C0.628571 5.10505 0.628571 5.10505 0.685714 5.04769C0.685714 4.99033 0.685714 4.99033 0.742857 4.93297C0.742857 4.93297 0.742857 4.87561 0.8 4.87561C0.8 4.81824 0.857143 4.81825 0.857143 4.76089C0.857143 4.70352 0.914286 4.70353 0.914286 4.64616C0.914286 4.5888 0.971429 4.5888 0.971429 4.53144C0.971429 4.47408 1.02857 4.47408 1.02857 4.41672C1.02857 4.35936 1.08571 4.35936 1.08571 4.302C1.08571 4.24464 1.14286 4.24464 1.14286 4.18728C1.2 4.12992 1.2 4.07256 1.25714 4.07256L1.31429 4.0152L1.37143 3.95784C1.42857 3.90048 1.54286 3.84312 1.6 3.78576L6.85714 0.745681C6.91429 0.688321 6.97143 0.688321 7.02857 0.688321H7.08571C7.08571 0.688321 7.08571 0.688321 7.14286 0.688321H7.2C7.25714 0.688321 7.25714 0.688321 7.31429 0.688321C7.42857 0.573601 7.42857 0.573601 7.42857 0.573601C7.48571 0.573601 7.48571 0.573601 7.48571 0.573601ZM14.5714 4.81824C14.6286 4.81824 14.6857 4.81824 14.7429 4.81824C14.6286 4.81824 14.6286 4.81824 14.5714 4.81824ZM14.9714 4.81824C14.9143 4.81824 14.9143 4.81824 14.9714 4.81824C14.9143 4.81824 14.9143 4.81824 14.9143 4.81824H14.8571C14.8571 4.81824 14.9143 4.81824 14.9714 4.81824ZM14.4571 4.87561C14.4 4.87561 14.2857 4.93296 14.2286 4.99033C14.2857 4.93296 14.4 4.87561 14.4571 4.87561C14.5143 4.87561 14.5143 4.87561 14.4571 4.87561ZM7.48571 0H7.42857H7.37143C7.31429 0 7.31429 0 7.31429 0C7.25714 0 7.2 0 7.14286 0.0573601H7.08571H7.02857C7.02857 0.0573601 6.97143 0.0573601 6.97143 0.11472C6.91429 0.17208 6.8 0.17208 6.74286 0.22944L1.48571 3.26952C1.37143 3.32688 1.25714 3.38424 1.14286 3.49896L1.08571 3.55632C1.02857 3.61368 0.971429 3.61368 0.971429 3.67104C0.914286 3.7284 0.857143 3.78576 0.8 3.84312C0.742857 3.90048 0.685714 3.95784 0.685714 3.95784C0.628571 4.0152 0.628571 4.07256 0.571429 4.12992C0.571429 4.18728 0.514286 4.18728 0.514286 4.24464C0.457143 4.24464 0.457143 4.302 0.4 4.35936C0.4 4.41672 0.342857 4.41672 0.342857 4.47408C0.342857 4.53144 0.285714 4.53144 0.285714 4.5888C0.285714 4.5888 0.285714 4.5888 0.285714 4.64616C0.285714 4.64616 0.285714 4.70352 0.228571 4.76089C0.228571 4.81825 0.171429 4.87561 0.171429 4.87561C0.171429 4.93297 0.114286 4.99033 0.114286 4.99033C0.114286 4.99033 0.114286 4.99033 0.114286 5.04769L0.628571 5.21977L0.0571429 5.04769V5.10505C0.0571429 5.16241 0 5.21977 0 5.27713C0 5.33449 0 5.33449 0 5.39185L0.571429 5.50657L0 5.39185V5.44921V5.50657C0 5.56393 0 5.67865 0 5.73601C0 5.79337 0 5.85073 0 5.90809C0 6.08017 0.0571429 6.19489 0.0571429 6.30961L1.25714 10.4969L1.31429 28.5653C1.31429 28.7947 1.42857 28.9668 1.65714 29.0816L8.91429 32.5232C8.97143 32.5805 9.08571 32.5805 9.14286 32.5805C9.25714 32.5805 9.31429 32.5805 9.42857 32.5232L14.4571 29.5978C14.6286 29.4831 14.7429 29.311 14.7429 29.0816L14.6857 11.8162L15.8857 6.19489C16.1143 5.27713 15.7143 4.64616 15.3143 4.41672L8.11429 0.17208C8.05714 0.11472 8 0.11472 8 0.11472C7.94286 0.11472 7.94286 0.0573601 7.88571 0.0573601H7.82857H7.77143C7.71429 0.0573601 7.65714 0.0573601 7.65714 0.0573601C7.54286 0 7.54286 0 7.48571 0Z" fill="white"/>
</svg>
