<svg width="11" height="147" viewBox="0 0 11 147" fill="none" xmlns="http://www.w3.org/2000/svg">
<path d="M6.52588 19.1499C6.56246 19.0518 6.52588 18.8882 6.52588 18.8882C6.4893 18.7574 6.34298 18.6265 6.16008 18.5284C5.64796 18.2667 4.80663 18.2667 4.33109 18.5284C4.07503 18.6593 3.92871 18.8555 3.92871 18.9864V71.6826V145.346C3.92871 145.51 4.07503 145.706 4.33109 145.804C4.80663 146.066 5.68454 146.066 6.16008 145.804C6.4893 145.641 6.59904 145.412 6.52588 145.215V19.1499Z" fill="white" stroke="#44688C" stroke-miterlimit="10"/>
<g clip-path="url(#clip0_0_1)">
<path d="M5.98599 20.9555L1.23468 18.7022L1.19727 6.83514L5.94858 9.57659L5.98599 20.9555Z" fill="#053354"/>
<path d="M5.12563 0.41341L9.87694 3.19241C9.7273 3.11731 9.54024 3.11731 9.31577 3.22997L4.56445 0.488518C4.78892 0.338302 4.97598 0.338302 5.12563 0.41341Z" fill="#053354"/>
<path d="M9.31577 3.26749L4.56445 0.488482C4.60187 0.450928 4.63928 0.450928 4.67669 0.450928L9.428 3.22993C9.39059 3.22993 9.35318 3.22993 9.31577 3.26749Z" fill="#053354"/>
<path d="M9.42807 3.19241L4.67676 0.413409C4.71417 0.413409 4.75158 0.375854 4.75158 0.375854L9.50289 3.15486C9.50289 3.19241 9.46548 3.19241 9.42807 3.19241Z" fill="#053354"/>
<path d="M9.50327 3.15484L4.75195 0.413391C4.78937 0.413391 4.78936 0.413391 4.82678 0.413391L9.57809 3.1924C9.57809 3.15484 9.54068 3.15484 9.50327 3.15484Z" fill="#053354"/>
<path d="M9.57749 3.15486L4.82617 0.375854C4.86358 0.375854 4.86358 0.375854 4.901 0.375854L9.65231 3.15486C9.6149 3.15486 9.6149 3.15486 9.57749 3.15486Z" fill="#053354"/>
<path d="M9.65268 3.15486L4.90137 0.375854H4.93878L9.69009 3.15486H9.65268Z" fill="#053354"/>
<path d="M9.68979 3.15486L4.93848 0.375854H4.97589L9.7272 3.15486H9.68979Z" fill="#053354"/>
<path d="M9.7269 3.15486L4.97559 0.375854H5.013L9.76431 3.15486C9.76431 3.15486 9.76431 3.15486 9.7269 3.15486Z" fill="#053354"/>
<path d="M9.76468 3.15486L5.05078 0.375854H5.08819L9.83951 3.15486C9.80209 3.15486 9.80209 3.15486 9.76468 3.15486Z" fill="#053354"/>
<path d="M9.8392 3.1924L5.08789 0.413391C5.08789 0.413391 5.1253 0.413391 5.1253 0.450945L9.87661 3.22995C9.8392 3.1924 9.8392 3.1924 9.8392 3.1924Z" fill="#053354"/>
<path d="M9.87729 3.1924L5.12598 0.413391L9.87729 3.1924Z" fill="#053354"/>
<path d="M5.9481 9.57663L1.19678 6.83517L0.411133 4.01862L5.16245 6.79762L5.9481 9.57663Z" fill="#053354"/>
<path d="M5.87406 5.22034L1.16016 2.47889L4.56464 0.488525L9.31595 3.26753L5.87406 5.22034Z" fill="#053354"/>
<path d="M5.16249 6.79762L0.411181 4.01862C0.261533 3.53041 0.635652 2.74178 1.15942 2.44135L5.91073 5.22035C5.38697 5.52078 5.01285 6.30942 5.16249 6.79762Z" fill="#053354"/>
<path d="M5.16275 6.79761L0.411435 4.01861C0.374023 3.90595 0.374023 3.79328 0.374023 3.64307L5.12534 6.42207C5.12534 6.57229 5.12534 6.68495 5.16275 6.79761Z" fill="#053354"/>
<path d="M5.12534 6.42206L0.374023 3.64306C0.374023 3.6055 0.374023 3.56795 0.411435 3.5304L5.16275 6.3094C5.12534 6.34695 5.12534 6.38451 5.12534 6.42206Z" fill="#053354"/>
<path d="M5.16245 6.30942L0.411133 3.56797C0.411133 3.53041 0.411133 3.49286 0.448545 3.49286L5.19986 6.27186C5.16245 6.27186 5.16245 6.27186 5.16245 6.30942Z" fill="#053354"/>
<path d="M5.16245 6.2343L0.411133 3.4553C0.411133 3.41774 0.411133 3.41774 0.448545 3.38019L5.19986 6.15919C5.19986 6.15919 5.16245 6.19675 5.16245 6.2343Z" fill="#053354"/>
<path d="M5.20053 6.15917L0.449219 3.38016C0.449219 3.34261 0.449219 3.34261 0.486631 3.30505L5.23794 6.08406C5.20053 6.08406 5.20053 6.12161 5.20053 6.15917Z" fill="#053354"/>
<path d="M5.23764 6.08409L0.486328 3.30509C0.486328 3.26753 0.486328 3.26753 0.52374 3.22998L5.23764 6.00898C5.23764 6.04654 5.23764 6.04654 5.23764 6.08409Z" fill="#053354"/>
<path d="M5.23764 6.00896L0.486328 3.22995C0.486328 3.1924 0.52374 3.1924 0.52374 3.15485L5.27505 5.93385C5.27505 5.9714 5.27505 5.9714 5.23764 6.00896Z" fill="#053354"/>
<path d="M5.27475 5.93389L0.523438 3.15488C0.523438 3.11733 0.560849 3.11733 0.560849 3.07977L5.31216 5.85878C5.31216 5.89633 5.27475 5.89633 5.27475 5.93389Z" fill="#053354"/>
<path d="M5.31284 5.85873L0.561523 3.11728C0.561523 3.07973 0.598935 3.07973 0.598935 3.04218L5.35025 5.82118C5.35025 5.82118 5.31284 5.85873 5.31284 5.85873Z" fill="#053354"/>
<path d="M5.34994 5.82121L0.598633 3.04221C0.598633 3.00466 0.636045 3.00466 0.636045 2.9671L5.38736 5.74611C5.38736 5.74611 5.34994 5.78366 5.34994 5.82121Z" fill="#053354"/>
<path d="M5.38706 5.74608L0.635742 2.96708C0.635742 2.92952 0.673154 2.92952 0.673154 2.89197L5.42447 5.67097C5.42447 5.70853 5.38706 5.70853 5.38706 5.74608Z" fill="#053354"/>
<path d="M5.42416 5.67101L0.672852 2.892C0.672852 2.85445 0.710263 2.85445 0.710263 2.81689L5.46158 5.5959C5.46158 5.63345 5.46158 5.63345 5.42416 5.67101Z" fill="#053354"/>
<path d="M5.49936 5.59587L0.748047 2.81687C0.748047 2.81687 0.785459 2.77931 0.785459 2.74176L5.53677 5.52077C5.53677 5.55832 5.49936 5.55832 5.49936 5.59587Z" fill="#053354"/>
<path d="M5.53647 5.52074L0.785156 2.74173C0.822568 2.70418 0.822568 2.66663 0.85998 2.66663L5.61129 5.44563C5.61129 5.48318 5.57388 5.48318 5.53647 5.52074Z" fill="#053354"/>
<path d="M5.64877 5.44566L0.897461 2.66665C0.972285 2.59154 1.04711 2.51644 1.15934 2.47888L5.91066 5.25789C5.79842 5.29544 5.7236 5.37055 5.64877 5.44566Z" fill="#053354"/>
<path d="M9.31518 3.26754C9.83895 2.96711 10.2131 3.3051 10.0634 3.98107L9.27777 7.69893L9.31518 19.0403L5.98552 20.9555L5.94811 9.61419L5.12505 6.83518C4.9754 6.34698 5.34952 5.55834 5.87329 5.25791L9.31518 3.26754Z" fill="white"/>
<path d="M4.90096 0.375846C4.93837 0.375846 4.93837 0.375846 4.90096 0.375846C4.93837 0.375846 4.97578 0.375846 4.97578 0.375846C4.97578 0.375846 4.97578 0.375846 5.0132 0.375846H5.05061C5.05061 0.375846 5.08802 0.375846 5.08802 0.413401L9.83933 3.19241H9.80192C10.0264 3.30507 10.1012 3.56795 10.0264 3.98104L9.24074 7.6989L9.27815 19.0402L5.98591 20.9555L1.23459 18.7023L1.19718 6.83516L0.374119 4.05615C0.374119 3.98104 0.374119 3.90593 0.374119 3.83083C0.374119 3.79327 0.374119 3.79327 0.374119 3.75572C0.374119 3.75572 0.374119 3.71816 0.374119 3.64305C0.374119 3.64305 0.374119 3.64306 0.374119 3.6055C0.374119 3.6055 0.374119 3.6055 0.374119 3.56795C0.374119 3.53039 0.374119 3.53039 0.374119 3.49284C0.374119 3.45528 0.374119 3.41773 0.411531 3.41773V3.38018C0.411531 3.34262 0.411531 3.34262 0.448943 3.30507C0.448943 3.26751 0.448943 3.26751 0.486355 3.22996C0.486355 3.22996 0.486355 3.19241 0.523767 3.19241C0.523767 3.15485 0.561179 3.15485 0.561179 3.1173C0.561179 3.07974 0.598591 3.07974 0.598591 3.04219C0.598591 3.00463 0.636003 3.00463 0.636003 2.96708C0.636003 2.92953 0.673414 2.92953 0.673414 2.89197C0.673414 2.85442 0.710826 2.85442 0.710826 2.81686C0.710826 2.77931 0.748238 2.77931 0.748238 2.74176C0.78565 2.7042 0.78565 2.66665 0.823062 2.66665L0.860474 2.62909L0.897886 2.59154C0.935298 2.55399 1.01012 2.51643 1.04753 2.47888L4.48943 0.488509C4.52684 0.450955 4.56425 0.450955 4.60167 0.450955H4.63908C4.63908 0.450955 4.63908 0.450955 4.67649 0.450955H4.7139C4.75131 0.450955 4.75131 0.450955 4.78873 0.450955C4.86355 0.375846 4.86355 0.375846 4.86355 0.375846C4.90096 0.375846 4.90096 0.375846 4.90096 0.375846ZM9.54004 3.15485C9.57745 3.15485 9.61486 3.15485 9.65227 3.15485C9.57745 3.15485 9.57745 3.15485 9.54004 3.15485ZM9.80192 3.15485C9.76451 3.15485 9.76451 3.15485 9.80192 3.15485C9.76451 3.15485 9.76451 3.15485 9.76451 3.15485H9.7271C9.7271 3.15485 9.76451 3.15485 9.80192 3.15485ZM9.46521 3.19241C9.4278 3.19241 9.35298 3.22996 9.31557 3.26751C9.35298 3.22996 9.4278 3.19241 9.46521 3.19241C9.50263 3.19241 9.50263 3.19241 9.46521 3.19241ZM4.90096 0.000305176H4.86355H4.82614C4.78873 0.000305176 4.78873 0.000305176 4.78873 0.000305176C4.75131 0.000305176 4.7139 0.000305176 4.67649 0.0378593H4.63908H4.60167C4.60167 0.0378593 4.56425 0.0378593 4.56425 0.0754134C4.52684 0.112968 4.45202 0.112968 4.41461 0.150522L0.97271 2.14089C0.897886 2.17844 0.823062 2.216 0.748238 2.29111L0.710826 2.32866C0.673414 2.36621 0.636003 2.36621 0.636003 2.40377C0.598591 2.44132 0.561179 2.47888 0.523767 2.51643C0.486355 2.55399 0.448943 2.59154 0.448943 2.59154C0.411531 2.62909 0.411531 2.66665 0.374119 2.7042C0.374119 2.74176 0.336707 2.74176 0.336707 2.77931C0.299295 2.77931 0.299295 2.81686 0.261883 2.85442C0.261883 2.89197 0.224472 2.89197 0.224472 2.92953C0.224472 2.96708 0.18706 2.96708 0.18706 3.00463C0.18706 3.00463 0.18706 3.00463 0.18706 3.04219C0.18706 3.04219 0.18706 3.07974 0.149648 3.1173C0.149648 3.15485 0.112236 3.19241 0.112236 3.19241C0.112236 3.22996 0.0748238 3.26751 0.0748238 3.26751C0.0748238 3.26751 0.0748238 3.26751 0.0748238 3.30507L0.411531 3.41773L0.0374119 3.30507V3.34262C0.0374119 3.38018 0 3.41773 0 3.45528C0 3.49284 0 3.49284 0 3.53039L0.374119 3.6055L0 3.53039V3.56795V3.6055C0 3.64306 0 3.71816 0 3.75572C0 3.79327 0 3.83083 0 3.86838C0 3.98104 0.0374119 4.05615 0.0374119 4.13126L0.823062 6.87271L0.860474 18.7023C0.860474 18.8525 0.935298 18.9651 1.08495 19.0402L5.83626 21.2935C5.87367 21.331 5.94849 21.331 5.98591 21.331C6.06073 21.331 6.09814 21.331 6.17297 21.2935L9.46521 19.3782C9.57745 19.3031 9.65227 19.1905 9.65227 19.0402L9.61486 7.73645L10.4005 4.05615C10.5502 3.45528 10.2883 3.04219 10.0264 2.89197L5.31249 0.112968C5.27508 0.0754134 5.23767 0.0754134 5.23767 0.0754134C5.20026 0.0754134 5.20026 0.0378593 5.16284 0.0378593H5.12543H5.08802C5.05061 0.0378593 5.0132 0.0378593 5.0132 0.0378593C4.93837 0.000305176 4.93837 0.000305176 4.90096 0.000305176Z" fill="white"/>
</g>
<defs>
<clipPath id="clip0_0_1">
<rect width="10.4753" height="21.6054" fill="white" transform="translate(0 0.000305176)"/>
</clipPath>
</defs>
</svg>
