<svg width="12" height="175" viewBox="0 0 12 175" fill="none" xmlns="http://www.w3.org/2000/svg">
  <path d="M6.73652 21.6078L6.98247 21.5615L6.97989 21.5506C6.92077 21.299 6.7066 21.0963 6.50294 20.9663L6.50297 20.9662L6.4983 20.9634C6.19254 20.7775 5.80434 20.692 5.43439 20.692C5.06693 20.692 4.68539 20.7764 4.39452 20.9655C4.23879 21.0609 4.11319 21.1813 4.02454 21.3071C3.93882 21.4287 3.87305 21.5766 3.87305 21.7252V84.8139V173.005C3.87305 173.309 4.08557 173.618 4.40674 173.772C4.6974 173.957 5.08302 174.038 5.44819 174.038C5.81794 174.038 6.20866 173.954 6.50053 173.765C6.88055 173.539 7.07908 173.178 6.98652 172.814V21.9528C7.0074 21.8587 7.00398 21.7618 6.99967 21.7023C6.99686 21.6634 6.99268 21.6294 6.9892 21.6049C6.98745 21.5926 6.98584 21.5825 6.9846 21.5751L6.98305 21.5661L6.98253 21.5633L6.98235 21.5623L6.98228 21.5619L6.98225 21.5617L6.98223 21.5616L6.73652 21.6078Z" fill="white" stroke="#44688C" stroke-width="0.5" stroke-miterlimit="10"/>
  <g clip-path="url(#clip0_117_6884)">
  <path d="M6.06708 1.3474L11.6787 4.5301C11.5019 4.44408 11.281 4.44408 11.0159 4.57311L5.4043 1.43341C5.66941 1.26138 5.89034 1.26138 6.06708 1.3474Z" fill="#053354"/>
  <path d="M11.0159 4.6161L5.4043 1.43339C5.44848 1.39038 5.49267 1.39038 5.53685 1.39038L11.1484 4.57309C11.1042 4.57309 11.0601 4.57309 11.0159 4.6161Z" fill="#053354"/>
  <path d="M11.1487 4.53004L5.53711 1.34733C5.5813 1.34733 5.62548 1.30432 5.62548 1.30432L11.2371 4.48703C11.2371 4.53004 11.1929 4.53004 11.1487 4.53004Z" fill="#053354"/>
  <path d="M11.2366 4.48711L5.625 1.34741C5.66919 1.34741 5.66919 1.34741 5.71337 1.34741L11.325 4.53012C11.325 4.48711 11.2808 4.48711 11.2366 4.48711Z" fill="#053354"/>
  <path d="M11.3245 4.48703L5.71289 1.30432C5.75708 1.30432 5.75708 1.30432 5.80126 1.30432L11.4128 4.48703C11.3687 4.48703 11.3687 4.48703 11.3245 4.48703Z" fill="#053354"/>
  <path d="M11.4124 4.48703L5.80078 1.30432H5.84497L11.4565 4.48703H11.4124Z" fill="#053354"/>
  <path d="M11.4573 4.48703L5.8457 1.30432H5.88989L11.5015 4.48703H11.4573Z" fill="#053354"/>
  <path d="M11.5022 4.48703L5.89062 1.30432H5.93481L11.5464 4.48703C11.5464 4.48703 11.5464 4.48703 11.5022 4.48703Z" fill="#053354"/>
  <path d="M11.5459 4.48703L5.97852 1.30432H6.0227L11.6343 4.48703C11.5901 4.48703 11.5901 4.48703 11.5459 4.48703Z" fill="#053354"/>
  <path d="M11.635 4.53012L6.02344 1.34741C6.02344 1.34741 6.06762 1.34741 6.06762 1.39042L11.6792 4.57313C11.635 4.53012 11.635 4.53012 11.635 4.53012Z" fill="#053354"/>
  <path d="M11.6799 4.53012L6.06836 1.34741L11.6799 4.53012Z" fill="#053354"/>
  <path d="M7.03948 11.8417L1.4279 8.70204L0.5 5.47632L6.11158 8.65903L7.03948 11.8417Z" fill="#053354"/>
  <path d="M6.95021 6.85268L1.38281 3.71298L5.40371 1.43347L11.0153 4.61618L6.95021 6.85268Z" fill="#053354"/>
  <path d="M6.11179 8.65903L0.500209 5.47632C0.323467 4.9172 0.765323 4.014 1.38392 3.66992L6.9955 6.85263C6.3769 7.19671 5.93505 8.09991 6.11179 8.65903Z" fill="#053354"/>
  <path d="M6.11084 8.65894L0.499264 5.47624C0.455078 5.34721 0.455078 5.21818 0.455078 5.04614L6.06666 8.22885C6.06666 8.40089 6.06666 8.52991 6.11084 8.65894Z" fill="#053354"/>
  <path d="M6.06666 8.22885L0.455078 5.04614C0.455078 5.00313 0.455078 4.96012 0.499264 4.91711L6.11084 8.09982C6.06666 8.14283 6.06666 8.18584 6.06666 8.22885Z" fill="#053354"/>
  <path d="M6.11158 8.09986L0.5 4.96016C0.5 4.91715 0.5 4.87415 0.544186 4.87415L6.15576 8.05685C6.11158 8.05685 6.11158 8.05685 6.11158 8.09986Z" fill="#053354"/>
  <path d="M6.11158 8.01384L0.5 4.83114C0.5 4.78813 0.5 4.78813 0.544186 4.74512L6.15576 7.92783C6.15576 7.92783 6.11158 7.97084 6.11158 8.01384Z" fill="#053354"/>
  <path d="M6.15455 7.92779L0.542969 4.74508C0.542969 4.70207 0.542969 4.70207 0.587154 4.65906L6.19873 7.84177C6.15455 7.84177 6.15455 7.88478 6.15455 7.92779Z" fill="#053354"/>
  <path d="M6.19947 7.84185L0.587891 4.65914C0.587891 4.61613 0.587891 4.61613 0.632076 4.57312L6.19947 7.75583C6.19947 7.79884 6.19947 7.79884 6.19947 7.84185Z" fill="#053354"/>
  <path d="M6.19947 7.75579L0.587891 4.57308C0.587891 4.53007 0.632076 4.53007 0.632076 4.48706L6.24366 7.66977C6.24366 7.71278 6.24366 7.71278 6.19947 7.75579Z" fill="#053354"/>
  <path d="M6.24439 7.66985L0.632812 4.48714C0.632812 4.44413 0.676998 4.44413 0.676998 4.40112L6.28858 7.58383C6.28858 7.62684 6.24439 7.62684 6.24439 7.66985Z" fill="#053354"/>
  <path d="M6.28736 7.58375L0.675781 4.44405C0.675781 4.40104 0.719967 4.40104 0.719967 4.35803L6.33154 7.54074C6.33154 7.54074 6.28736 7.58375 6.28736 7.58375Z" fill="#053354"/>
  <path d="M6.33033 7.5407L0.71875 4.35799C0.71875 4.31498 0.762936 4.31498 0.762936 4.27197L6.37451 7.45468C6.37451 7.45468 6.33033 7.49769 6.33033 7.5407Z" fill="#053354"/>
  <path d="M6.37525 7.45476L0.763672 4.27205C0.763672 4.22904 0.807857 4.22904 0.807857 4.18604L6.41944 7.36874C6.41944 7.41175 6.37525 7.41175 6.37525 7.45476Z" fill="#053354"/>
  <path d="M6.42017 7.3687L0.808594 4.18599C0.808594 4.14299 0.852779 4.14299 0.852779 4.09998L6.46436 7.28268C6.46436 7.32569 6.46436 7.32569 6.42017 7.3687Z" fill="#053354"/>
  <path d="M6.50806 7.28264L0.896484 4.09994C0.896484 4.09994 0.94067 4.05693 0.94067 4.01392L6.55225 7.19662C6.55225 7.23963 6.50806 7.23963 6.50806 7.28264Z" fill="#053354"/>
  <path d="M6.55299 7.1967L0.941406 4.014C0.985592 3.97099 0.985592 3.92798 1.02978 3.92798L6.64136 7.11069C6.64136 7.1537 6.59717 7.1537 6.55299 7.1967Z" fill="#053354"/>
  <path d="M6.6858 7.11064L1.07422 3.92794C1.16259 3.84192 1.25096 3.7559 1.38352 3.71289L6.9951 6.8956C6.86254 6.93861 6.77417 7.02462 6.6858 7.11064Z" fill="#053354"/>
  <path d="M10.1498 3.74294C10.7253 3.41808 11.1363 3.78355 10.9719 4.51448L10.1087 8.5346L10.1498 20.798L6.49167 22.869L6.45056 10.6056L5.5463 7.60063C5.38189 7.07274 5.79292 6.21998 6.36836 5.89513L10.1498 3.74294Z" fill="white"/>
  <path d="M5.22314 1.2615C5.26292 1.2615 5.26292 1.2615 5.22314 1.2615C5.26292 1.2615 5.30271 1.2615 5.30271 1.2615C5.30271 1.2615 5.30271 1.2615 5.34249 1.2615H5.38227C5.38227 1.2615 5.42205 1.2615 5.42205 1.30022L10.4743 4.16572H10.4346C10.6733 4.28189 10.7528 4.55295 10.6733 4.9789L9.83784 8.81248L9.87762 20.5068L6.37682 22.4817L1.32452 20.1583L1.28474 7.92185L0.409537 5.05635C0.409537 4.9789 0.409537 4.90146 0.409537 4.82401C0.409537 4.78529 0.409537 4.78529 0.409537 4.74657C0.409537 4.74657 0.409537 4.70784 0.409537 4.6304C0.409537 4.6304 0.409537 4.6304 0.409537 4.59167C0.409537 4.59167 0.409537 4.59167 0.409537 4.55295C0.409537 4.51423 0.409537 4.51423 0.409537 4.4755C0.409537 4.43678 0.409537 4.39806 0.449319 4.39806V4.35934C0.449319 4.32061 0.449319 4.32061 0.489101 4.28189C0.489101 4.24317 0.489101 4.24317 0.528883 4.20444C0.528883 4.20444 0.528883 4.16572 0.568665 4.16572C0.568665 4.127 0.608447 4.127 0.608447 4.08827C0.608447 4.04955 0.648229 4.04955 0.648229 4.01083C0.648229 3.97211 0.68801 3.97211 0.68801 3.93338C0.68801 3.89466 0.727792 3.89466 0.727792 3.85594C0.727792 3.81721 0.767574 3.81721 0.767574 3.77849C0.767574 3.73977 0.807356 3.73977 0.807356 3.70105C0.847138 3.66232 0.847138 3.6236 0.88692 3.6236L0.926702 3.58488L0.966483 3.54615C1.00627 3.50743 1.08583 3.46871 1.12561 3.42998L4.78554 1.37767C4.82532 1.33894 4.86511 1.33894 4.90489 1.33894H4.94467C4.94467 1.33894 4.94467 1.33894 4.98445 1.33894H5.02423C5.06402 1.33894 5.06402 1.33894 5.1038 1.33894C5.18336 1.2615 5.18336 1.2615 5.18336 1.2615C5.22314 1.2615 5.22314 1.2615 5.22314 1.2615ZM10.1561 4.127C10.1959 4.127 10.2357 4.127 10.2754 4.127C10.1959 4.127 10.1959 4.127 10.1561 4.127ZM10.4346 4.127C10.3948 4.127 10.3948 4.127 10.4346 4.127C10.3948 4.127 10.3948 4.127 10.3948 4.127H10.355C10.355 4.127 10.3948 4.127 10.4346 4.127ZM10.0765 4.16572C10.0367 4.16572 9.95718 4.20444 9.9174 4.24317C9.95718 4.20444 10.0367 4.16572 10.0765 4.16572C10.1163 4.16572 10.1163 4.16572 10.0765 4.16572ZM5.22314 0.874268H5.18336H5.14358C5.1038 0.874268 5.1038 0.874268 5.1038 0.874268C5.06402 0.874268 5.02423 0.874268 4.98445 0.912991H4.94467H4.90489C4.90489 0.912991 4.86511 0.912991 4.86511 0.951714C4.82532 0.990437 4.74576 0.990437 4.70598 1.02916L1.04605 3.08148C0.966483 3.1202 0.88692 3.15892 0.807356 3.23637L0.767574 3.27509C0.727792 3.31382 0.68801 3.31382 0.68801 3.35254C0.648229 3.39126 0.608447 3.42998 0.568665 3.46871C0.528883 3.50743 0.489101 3.54615 0.489101 3.54615C0.449319 3.58488 0.449319 3.6236 0.409537 3.66232C0.409537 3.70105 0.369756 3.70105 0.369756 3.73977C0.329974 3.73977 0.329974 3.77849 0.290192 3.81721C0.290192 3.85594 0.25041 3.85594 0.25041 3.89466C0.25041 3.93338 0.210628 3.93338 0.210628 3.97211C0.210628 3.97211 0.210628 3.97211 0.210628 4.01083C0.210628 4.01083 0.210628 4.04955 0.170846 4.08827C0.170846 4.127 0.131064 4.16572 0.131064 4.16572C0.131064 4.20444 0.0912825 4.24317 0.0912825 4.24317C0.0912825 4.24317 0.0912825 4.24317 0.0912825 4.28189L0.449319 4.39806L0.0515006 4.28189V4.32061C0.0515006 4.35934 0.0117188 4.39806 0.0117188 4.43678C0.0117188 4.4755 0.0117188 4.4755 0.0117188 4.51423L0.409537 4.59167L0.0117188 4.51423V4.55295V4.59167C0.0117188 4.6304 0.0117188 4.70784 0.0117188 4.74657C0.0117188 4.78529 0.0117188 4.82401 0.0117188 4.86273C0.0117188 4.9789 0.0515006 5.05635 0.0515006 5.1338L0.88692 7.96057L0.926702 20.1583C0.926702 20.3132 1.00627 20.4294 1.16539 20.5068L6.21769 22.8302C6.25747 22.8689 6.33703 22.8689 6.37682 22.8689C6.45638 22.8689 6.49616 22.8689 6.57573 22.8302L10.0765 20.8553C10.1959 20.7779 10.2754 20.6617 10.2754 20.5068L10.2357 8.8512L11.0711 5.05635C11.2302 4.43678 10.9517 4.01083 10.6733 3.85594L5.66074 0.990437C5.62096 0.951714 5.58118 0.951714 5.58118 0.951714C5.5414 0.951714 5.5414 0.912991 5.50162 0.912991H5.46183H5.42205C5.38227 0.912991 5.34249 0.912991 5.34249 0.912991C5.26292 0.874268 5.26292 0.874268 5.22314 0.874268Z" fill="white"/>
  </g>
  <defs>
  <clipPath id="clip0_117_6884">
  <rect width="10.9973" height="21.9946" fill="white" transform="translate(0.0117188 0.874268)"/>
  </clipPath>
  </defs>
</svg>
