<svg viewBox="0 0 131 94" fill="none" xmlns="http://www.w3.org/2000/svg">
  <path fill-rule="evenodd" clip-rule="evenodd" d="M0 32.5H122.5V38H118.5L100 61L99 62H107V60.5H111.5V76.5H102.5C101.5 73.3333 97.4 67 89 67C80.6 67 76.8333 73.3333 76 76.5H50C49.1667 73.5 45.3 67.5 36.5 67.5C27.7 67.5 24.1667 73.5 23.5 76.5H21V61H23.5L5 38H0V32.5ZM14.5 36C15.0523 36 15.5 35.5523 15.5 35C15.5 34.4477 15.0523 34 14.5 34C13.9477 34 13.5 34.4477 13.5 35C13.5 35.5523 13.9477 36 14.5 36ZM25.5 36C26.0523 36 26.5 35.5523 26.5 35C26.5 34.4477 26.0523 34 25.5 34C24.9477 34 24.5 34.4477 24.5 35C24.5 35.5523 24.9477 36 25.5 36ZM38.5 35C38.5 35.5523 38.0523 36 37.5 36C36.9477 36 36.5 35.5523 36.5 35C36.5 34.4477 36.9477 34 37.5 34C38.0523 34 38.5 34.4477 38.5 35ZM49.5 36C50.0523 36 50.5 35.5523 50.5 35C50.5 34.4477 50.0523 34 49.5 34C48.9477 34 48.5 34.4477 48.5 35C48.5 35.5523 48.9477 36 49.5 36ZM62.5 35C62.5 35.5523 62.0523 36 61.5 36C60.9477 36 60.5 35.5523 60.5 35C60.5 34.4477 60.9477 34 61.5 34C62.0523 34 62.5 34.4477 62.5 35ZM73.5 36C74.0523 36 74.5 35.5523 74.5 35C74.5 34.4477 74.0523 34 73.5 34C72.9477 34 72.5 34.4477 72.5 35C72.5 35.5523 72.9477 36 73.5 36ZM86.5 35C86.5 35.5523 86.0523 36 85.5 36C84.9477 36 84.5 35.5523 84.5 35C84.5 34.4477 84.9477 34 85.5 34C86.0523 34 86.5 34.4477 86.5 35ZM89.5 42C90.0523 42 90.5 41.5523 90.5 41C90.5 40.4477 90.0523 40 89.5 40C88.9477 40 88.5 40.4477 88.5 41C88.5 41.5523 88.9477 42 89.5 42ZM90.5 48C90.5 48.5523 90.0523 49 89.5 49C88.9477 49 88.5 48.5523 88.5 48C88.5 47.4477 88.9477 47 89.5 47C90.0523 47 90.5 47.4477 90.5 48ZM89.5 56C90.0523 56 90.5 55.5523 90.5 55C90.5 54.4477 90.0523 54 89.5 54C88.9477 54 88.5 54.4477 88.5 55C88.5 55.5523 88.9477 56 89.5 56ZM90.5 62C90.5 62.5523 90.0523 63 89.5 63C88.9477 63 88.5 62.5523 88.5 62C88.5 61.4477 88.9477 61 89.5 61C90.0523 61 90.5 61.4477 90.5 62ZM97.5 36C98.0523 36 98.5 35.5523 98.5 35C98.5 34.4477 98.0523 34 97.5 34C96.9477 34 96.5 34.4477 96.5 35C96.5 35.5523 96.9477 36 97.5 36ZM110.5 35C110.5 35.5523 110.052 36 109.5 36C108.948 36 108.5 35.5523 108.5 35C108.5 34.4477 108.948 34 109.5 34C110.052 34 110.5 34.4477 110.5 35ZM61.5 42C62.0523 42 62.5 41.5523 62.5 41C62.5 40.4477 62.0523 40 61.5 40C60.9477 40 60.5 40.4477 60.5 41C60.5 41.5523 60.9477 42 61.5 42ZM62.5 48C62.5 48.5523 62.0523 49 61.5 49C60.9477 49 60.5 48.5523 60.5 48C60.5 47.4477 60.9477 47 61.5 47C62.0523 47 62.5 47.4477 62.5 48ZM33.5 42C34.0523 42 34.5 41.5523 34.5 41C34.5 40.4477 34.0523 40 33.5 40C32.9477 40 32.5 40.4477 32.5 41C32.5 41.5523 32.9477 42 33.5 42ZM34.5 48C34.5 48.5523 34.0523 49 33.5 49C32.9477 49 32.5 48.5523 32.5 48C32.5 47.4477 32.9477 47 33.5 47C34.0523 47 34.5 47.4477 34.5 48ZM33.5 56C34.0523 56 34.5 55.5523 34.5 55C34.5 54.4477 34.0523 54 33.5 54C32.9477 54 32.5 54.4477 32.5 55C32.5 55.5523 32.9477 56 33.5 56ZM34.5 62C34.5 62.5523 34.0523 63 33.5 63C32.9477 63 32.5 62.5523 32.5 62C32.5 61.4477 32.9477 61 33.5 61C34.0523 61 34.5 61.4477 34.5 62ZM61.5 63C62.0523 63 62.5 62.5523 62.5 62C62.5 61.4477 62.0523 61 61.5 61C60.9477 61 60.5 61.4477 60.5 62C60.5 62.5523 60.9477 63 61.5 63ZM62.5 68C62.5 68.5523 62.0523 69 61.5 69C60.9477 69 60.5 68.5523 60.5 68C60.5 67.4477 60.9477 67 61.5 67C62.0523 67 62.5 67.4477 62.5 68Z" fill="white"/>
  <path d="M126.5 67H113.5V71.5H126.5V77.5H131V61H126.5V67Z" fill="white"/>
  <path d="M120 30.5H6.5L14 22.5L18 21L16.5 17L22 15.5H34.188L36 11.5L43.5 8.5V1.5L48.5 0L56 3L68 2.5L72.5 7.5L86.5 10L88.5 15.5L95.5 18.5L100 23H105.5L112 24.5L113 28H117L120 30.5Z" fill="white"/>
  <path
    fill-rule="evenodd"
    clip-rule="evenodd"
    class="page__trolley-wheels"
    d="M37 94C43.9036 94 49.5 88.4036 49.5 81.5C49.5 74.5964 43.9036 69 37 69C30.0964 69 24.5 74.5964 24.5 81.5C24.5 88.4036 30.0964 94 37 94ZM37 86C39.4853 86 41.5 83.9853 41.5 81.5C41.5 79.0147 39.4853 77 37 77C34.5147 77 32.5 79.0147 32.5 81.5C32.5 83.9853 34.5147 86 37 86Z"
    fill="white"
  />
  <path
    fill-rule="evenodd"
    clip-rule="evenodd"
    class="page__trolley-wheels"
    d="M89 94C95.9036 94 101.5 88.4036 101.5 81.5C101.5 74.5964 95.9036 69 89 69C82.0964 69 76.5 74.5964 76.5 81.5C76.5 88.4036 82.0964 94 89 94ZM89 86C91.4853 86 93.5 83.9853 93.5 81.5C93.5 79.0147 91.4853 77 89 77C86.5147 77 84.5 79.0147 84.5 81.5C84.5 83.9853 86.5147 86 89 86Z"
    fill="white"
  />
</svg>
