<svg viewBox="0 0 19 22" fill="none" xmlns="http://www.w3.org/2000/svg">
  <path d="M13.6265 21.5283V19.0283M15.1265 15.5283C14.9598 16.8617 13.7057 20.5283 9.62646 20.5283C5.12646 20.5283 3.9598 17.5283 3.62646 15.5283M5.12646 21.5283V19.0283" stroke="white"/>
  <path d="M15.6264 6.52856C15.6264 4.52856 14.3264 0.628564 9.1264 1.02856C3.9264 1.42856 2.95974 4.8619 3.1264 6.52856M2.62646 8.02856V12.0286M16.1265 8.02856V12.0286M2.12646 6.52856H16.6264C16.9598 6.52856 17.6264 6.82856 17.6264 8.02856C17.6264 9.22856 17.6264 11.5286 17.6264 12.5286V13.0286C17.6264 13.5286 16.5264 14.6286 12.1264 15.0286C11.6264 15.0286 11.1264 14.0286 9.62643 14.0286C8.42643 14.0286 7.45976 14.6952 7.12643 15.0286C5.62643 15.0286 2.42643 14.7286 1.62643 13.5286C0.826431 12.3286 0.959764 8.69523 1.12643 7.02856C1.16159 6.62856 1.80777 6.52856 2.12646 6.52856Z" stroke="white"/>
</svg>
