<svg width="36" height="30" viewBox="0 0 36 30" fill="none" xmlns="http://www.w3.org/2000/svg">
  <path d="M5.62207 14.6286L17.5821 29.2571V18.4889C15.7421 18.1841 14.4132 16.5587 14.4132 14.6286C14.4132 12.5968 15.9465 10.8698 17.991 10.6667C20.0354 10.8698 21.5687 12.4952 21.5687 14.6286H29.5421L17.5821 0V10.6667C15.4354 10.6667 13.5954 12.3936 13.5954 14.6286H5.62207Z" fill="#03243E"/>
  <path d="M21.8758 0L21.7736 0.101587L33.7336 14.6286H29.6447L19.627 26.7175L21.6714 29.2571L35.0625 14.6286L21.8758 0Z" fill="#03243E"/>
  <path d="M15.5378 2.53968L13.4933 0L0 14.6286L13.2889 29.2571L13.3911 29.1556L1.43111 14.6286H5.52L15.5378 2.53968Z" fill="#03243E"/>
</svg>
