<svg width="123" height="86" viewBox="0 0 123 86" fill="none" xmlns="http://www.w3.org/2000/svg">
<g clip-path="url(#clip0_117_6796)">
<path d="M3.69 61.9746C4.23667 61.9746 9.97667 61.9746 9.97667 61.9746V59.1079C9.97667 59.1079 4.23667 59.1079 3.69 59.1079V56.6508C4.23667 56.6508 14.4867 56.6508 14.4867 56.6508V53.7841H0V68.1175H14.6233V65.1143C14.6233 65.1143 4.23667 65.1143 3.69 65.1143V61.9746Z" fill="white"/>
<path d="M120.403 56.1048C120.403 56.1048 115.346 62.5206 114.936 62.9302C114.526 62.3841 109.47 56.1048 109.47 56.1048H106.873V67.981H110.153C110.153 67.981 110.153 62.5206 110.153 61.1556C110.973 62.1111 114.39 66.6159 114.39 66.6159H115.21C115.21 66.6159 118.763 62.2476 119.446 61.1556C119.446 62.3841 119.446 67.981 119.446 67.981H123V56.1048H120.403Z" fill="white"/>
<path d="M91.8405 64.0222C91.8405 62.9302 91.8405 56.1048 91.8405 56.1048H88.5605V67.981H91.1572C91.1572 67.981 99.6305 60.746 100.451 60.0635C100.451 61.1556 100.451 67.981 100.451 67.981H103.731V56.1048H101.134C101.134 56.1048 92.6605 63.3397 91.8405 64.0222Z" fill="white"/>
<path d="M84.8702 53.6476H80.4969C80.4969 53.6476 76.8069 57.7429 76.3969 58.1524C75.9869 57.7429 72.1602 53.6476 72.1602 53.6476H67.1035C67.1035 53.6476 73.6635 60.2 73.9368 60.6095C73.6635 61.019 67.2402 67.981 67.2402 67.981H71.7502C71.7502 67.981 75.8502 63.2032 76.2602 62.7937C76.6702 63.2032 81.1802 67.981 81.1802 67.981H86.2368C86.2368 67.981 78.9935 60.6095 78.5835 60.2C78.9935 59.927 84.8702 53.6476 84.8702 53.6476Z" fill="white"/>
<path d="M29.9291 61.8381C30.2024 61.7016 30.3391 61.5651 30.6124 61.4286C30.7491 61.2921 31.2957 60.746 31.2957 59.927V58.5619C31.2957 58.0159 31.2957 57.3333 30.6124 56.7873C29.9291 56.2413 28.9724 56.1048 28.4257 56.1048H18.0391V67.981H27.8791C28.9724 67.981 29.7924 67.8445 30.4757 67.4349C31.1591 67.0254 31.5691 66.3429 31.5691 65.5238V64.0222C31.5691 63.3397 31.2957 62.7937 30.8857 62.3841C30.4757 62.2476 30.2024 62.1111 29.9291 61.8381ZM21.1824 58.5619C21.7291 58.5619 27.0591 58.5619 27.0591 58.5619C27.7424 58.5619 27.8791 58.6984 27.8791 58.6984C28.0157 58.8349 28.0157 58.9714 28.0157 59.1079V60.2C28.0157 60.473 28.0157 60.473 27.8791 60.6095C27.7424 60.746 27.4691 60.746 27.0591 60.746C27.0591 60.746 21.7291 60.746 21.1824 60.746V58.5619ZM28.0157 64.7048C28.0157 64.8413 28.0157 65.1143 27.8791 65.2508C27.8791 65.2508 27.6057 65.3873 27.0591 65.3873C27.0591 65.3873 21.7291 65.3873 21.1824 65.3873V63.0667C21.7291 63.0667 27.0591 63.0667 27.0591 63.0667C27.6057 63.0667 27.7424 63.2032 27.8791 63.2032C28.0157 63.3397 28.0157 63.6127 28.0157 63.7492V64.7048Z" fill="white"/>
<path d="M44.5527 56.1048H34.166V67.981H37.446C37.446 67.981 37.446 64.1587 37.446 63.6127C37.9927 63.6127 44.5527 63.6127 44.5527 63.6127C45.5093 63.6127 46.1927 63.4762 46.7394 63.0667C47.4227 62.5206 47.4227 61.7016 47.4227 61.1556V58.5619C47.4227 57.4699 47.1493 56.1048 44.5527 56.1048ZM44.2794 60.473C44.2794 60.746 44.2793 60.8825 44.1427 60.8825C44.006 61.0191 43.7327 61.0191 43.4593 61.0191C43.4593 61.0191 37.856 61.0191 37.3093 61.0191V58.6984C37.856 58.6984 43.3227 58.6984 43.3227 58.6984C43.596 58.6984 44.006 58.6984 44.1427 58.8349C44.2793 58.9714 44.2794 59.1079 44.2794 59.2445V60.473Z" fill="white"/>
<path d="M64.5063 56.7873C63.8229 56.1048 62.4563 56.1048 61.9096 56.1048H53.1629C51.9329 56.1048 51.2496 56.2413 50.8396 56.6508C50.1562 57.3333 50.1562 58.4254 50.1562 58.9714V64.9778C50.1562 65.3873 50.1562 66.6159 50.8396 67.2984C51.2496 67.7079 52.0696 67.981 53.4362 67.981H62.0463C63.0029 67.981 63.9596 67.981 64.6429 67.2984C65.3263 66.6159 65.3263 65.5238 65.3263 65.2508V59.1079C65.1896 58.5619 65.1896 57.4698 64.5063 56.7873ZM61.9096 65.2508H53.4362V58.8349H61.9096V65.2508Z" fill="white"/>
<path d="M45.5098 19.6571L61.4998 39.3143V24.8444C59.0398 24.4349 57.2631 22.2508 57.2631 19.6571C57.2631 16.927 59.3131 14.6063 62.0464 14.3333C64.7798 14.6063 66.8298 16.7905 66.8298 19.6571H77.4898L61.4998 0V14.3333C58.6298 14.3333 56.1698 16.654 56.1698 19.6571H45.5098Z" fill="white"/>
<path d="M67.2391 0L67.1024 0.136508L83.0924 19.6571H77.6258L64.2324 35.9016L66.9658 39.3143L84.8691 19.6571L67.2391 0Z" fill="white"/>
<path d="M58.7675 3.4127L56.0341 0L37.9941 19.6571L55.7608 39.3143L55.8975 39.1778L39.9075 19.6571H45.3741L58.7675 3.4127Z" fill="white"/>
<path d="M26.1035 78.7651H29.3835C30.6135 78.7651 31.4335 79.5842 31.4335 80.5397C31.4335 81.4953 30.8868 82.0413 30.2035 82.1778C30.8868 82.3143 31.5702 82.9968 31.5702 83.9524C31.5702 85.0445 30.8868 85.8635 29.5202 85.8635H26.1035V78.7651ZM29.2468 81.7683C29.9302 81.7683 30.3402 81.3587 30.3402 80.6762C30.3402 80.1302 29.9302 79.5841 29.2468 79.5841H27.1968V81.6318H29.2468V81.7683ZM29.3835 84.9079C30.0668 84.9079 30.6135 84.4984 30.6135 83.8159C30.6135 83.2699 30.2035 82.7238 29.3835 82.7238H27.3335V84.9079H29.3835Z" fill="#00B0F0"/>
<path d="M36.2174 78.6286C38.2674 78.6286 39.7707 80.1302 39.7707 82.3143C39.7707 84.4984 38.2674 86 36.2174 86C34.1674 86 32.6641 84.4984 32.6641 82.3143C32.6641 80.1302 34.0307 78.6286 36.2174 78.6286ZM36.2174 79.5842C34.7141 79.5842 33.7574 80.6762 33.7574 82.3143C33.7574 83.8159 34.7141 85.0445 36.2174 85.0445C37.7207 85.0445 38.6774 83.8159 38.6774 82.3143C38.6774 80.8127 37.7207 79.5842 36.2174 79.5842Z" fill="#00B0F0"/>
<path d="M42.093 80.9492L42.2297 78.7651H46.7397V85.8635H45.6464V79.7207H43.0497L42.913 80.9492C42.503 85.454 41.5464 86 40.1797 86V84.908C41.1364 84.908 41.8197 84.3619 42.093 80.9492Z" fill="#00B0F0"/>
<path d="M48.5176 78.7651H53.3009V79.7207H49.6109V85.8635H48.5176V78.7651Z" fill="#00B0F0"/>
<path d="M58.084 84.3619H54.6673L54.1207 85.8635H53.0273L55.7607 78.7651H57.1273L59.8607 85.8635H58.7673L58.084 84.3619ZM54.9407 83.4064H57.8107L56.444 79.7207L54.9407 83.4064Z" fill="#00B0F0"/>
<path d="M62.5931 82.8603L61.9097 83.5429V85.8635H60.8164V78.7651H61.9097V82.3143L64.9164 78.7651H66.2831L63.4131 82.1778L66.5564 85.8635H65.1897L62.5931 82.8603Z" fill="#00B0F0"/>
<path d="M72.2969 84.3619H68.8802L68.3336 85.8635H67.2402L69.9736 78.7651H71.3402L74.0736 85.8635H72.9802L72.2969 84.3619ZM69.1536 83.4064H72.0236L70.6569 79.7207L69.1536 83.4064Z" fill="#00B0F0"/>
<path d="M76.6692 80.9492L76.8059 78.7651H81.3159V85.8635H80.2225V79.7207H77.6259L77.4892 80.9492C77.0792 85.454 76.1225 86 74.7559 86V84.908C75.7125 84.908 76.2592 84.3619 76.6692 80.9492Z" fill="#00B0F0"/>
<path d="M84.0503 78.7651V84.2254L87.877 78.7651H88.9703V85.8635H87.877V80.2667L83.9136 85.8635H82.8203V78.7651H84.0503Z" fill="#00B0F0"/>
<path d="M91.7027 78.7651V84.2254L95.5294 78.7651H96.6227V85.8635H95.666V80.2667L91.7027 85.8635H90.6094V78.7651H91.7027ZM91.976 77.4L92.5227 76.9905C92.796 77.4 93.206 77.673 93.7527 77.673C94.2994 77.673 94.7094 77.4 94.9827 76.9905L95.5294 77.4C95.1194 77.946 94.436 78.3556 93.7527 78.3556C92.9327 78.219 92.386 77.946 91.976 77.4Z" fill="#00B0F0"/>
</g>
<defs>
<clipPath id="clip0_117_6796">
<rect width="123" height="86" fill="white"/>
</clipPath>
</defs>
</svg>
