<svg width="131" height="30" viewBox="0 0 131 30" fill="none" xmlns="http://www.w3.org/2000/svg">
<path d="M41.76 6.19683C42.1689 6.19683 46.4622 6.19683 46.4622 6.19683V4.0635C46.4622 4.0635 42.1689 4.0635 41.76 4.0635V2.23493C42.1689 2.23493 49.8356 2.23493 49.8356 2.23493V0.101593H39V10.7683H49.9378V8.53334C49.9378 8.53334 42.1689 8.53334 41.76 8.53334V6.19683Z" fill="white"/>
<path d="M129.058 1.82858C129.058 1.82858 125.275 6.60319 124.969 6.90795C124.662 6.5016 120.88 1.82858 120.88 1.82858H118.938V10.6667H121.391C121.391 10.6667 121.391 6.60319 121.391 5.58731C122.004 6.29843 124.56 9.65081 124.56 9.65081H125.173C125.173 9.65081 127.831 6.40001 128.342 5.58731C128.342 6.5016 128.342 10.6667 128.342 10.6667H131V1.82858H129.058Z" fill="white"/>
<path d="M107.694 7.72065C107.694 6.90795 107.694 1.82858 107.694 1.82858H105.24V10.6667H107.182C107.182 10.6667 113.52 5.28255 114.134 4.77462C114.134 5.58731 114.134 10.6667 114.134 10.6667H116.587V1.82858H114.645C114.645 1.82858 108.307 7.21271 107.694 7.72065Z" fill="white"/>
<path d="M102.48 0H99.2092C99.2092 0 96.4492 3.04762 96.1425 3.35238C95.8359 3.04762 92.9736 0 92.9736 0H89.1914C89.1914 0 94.0981 4.87619 94.3025 5.18096C94.0981 5.48572 89.2936 10.6667 89.2936 10.6667H92.667C92.667 10.6667 95.7336 7.11111 96.0403 6.80635C96.347 7.11111 99.7203 10.6667 99.7203 10.6667H103.503C103.503 10.6667 98.0847 5.18095 97.7781 4.87619C98.0847 4.67302 102.48 0 102.48 0Z" fill="white"/>
<path d="M61.3865 6.09525C61.5909 5.99366 61.6932 5.89208 61.8976 5.79049C61.9998 5.6889 62.4087 5.28255 62.4087 4.67303V3.65716C62.4087 3.25081 62.4087 2.74287 61.8976 2.33652C61.3865 1.93017 60.6709 1.82858 60.2621 1.82858H52.4932V10.6667H59.8532C60.6709 10.6667 61.2843 10.5651 61.7954 10.2603C62.3065 9.95557 62.6132 9.44763 62.6132 8.83811V7.72065C62.6132 7.21271 62.4087 6.80636 62.1021 6.5016C61.7954 6.40001 61.5909 6.29843 61.3865 6.09525ZM54.8443 3.65716C55.2532 3.65716 59.2398 3.65716 59.2398 3.65716C59.7509 3.65716 59.8532 3.75874 59.8532 3.75874C59.9554 3.86033 59.9554 3.96192 59.9554 4.0635V4.8762C59.9554 5.07938 59.9554 5.07938 59.8532 5.18097C59.7509 5.28255 59.5465 5.28255 59.2398 5.28255C59.2398 5.28255 55.2532 5.28255 54.8443 5.28255V3.65716ZM59.9554 8.22859C59.9554 8.33017 59.9554 8.53335 59.8532 8.63493C59.8532 8.63493 59.6487 8.73652 59.2398 8.73652C59.2398 8.73652 55.2532 8.73652 54.8443 8.73652V7.00954C55.2532 7.00954 59.2398 7.00954 59.2398 7.00954C59.6487 7.00954 59.7509 7.11112 59.8532 7.11112C59.9554 7.21271 59.9554 7.41589 59.9554 7.51747V8.22859Z" fill="white"/>
<path d="M72.3246 1.82858H64.5557V10.6667H67.009C67.009 10.6667 67.009 7.82223 67.009 7.41588C67.4179 7.41588 72.3246 7.41588 72.3246 7.41588C73.0401 7.41588 73.5512 7.3143 73.9601 7.00954C74.4712 6.60319 74.4712 5.99366 74.4712 5.58731V3.65716C74.4712 2.84446 74.2668 1.82858 72.3246 1.82858ZM72.1201 5.07938C72.1201 5.28255 72.1201 5.38414 72.0179 5.38414C71.9157 5.48573 71.7112 5.48573 71.5068 5.48573C71.5068 5.48573 67.3157 5.48573 66.9068 5.48573V3.75874C67.3157 3.75874 71.4046 3.75874 71.4046 3.75874C71.609 3.75874 71.9157 3.75874 72.0179 3.86033C72.1201 3.96192 72.1201 4.06351 72.1201 4.16509V5.07938Z" fill="white"/>
<path d="M87.249 2.33652C86.7379 1.82858 85.7156 1.82858 85.3067 1.82858H78.7645C77.8445 1.82858 77.3334 1.93017 77.0267 2.23493C76.5156 2.74287 76.5156 3.55557 76.5156 3.96192V8.43176C76.5156 8.73652 76.5156 9.65081 77.0267 10.1587C77.3334 10.4635 77.9467 10.6667 78.969 10.6667H85.409C86.1245 10.6667 86.8401 10.6667 87.3512 10.1587C87.8623 9.65081 87.8623 8.83811 87.8623 8.63493V4.0635C87.7601 3.65716 87.7601 2.84446 87.249 2.33652ZM85.3067 8.63493H78.969V3.86033H85.3067V8.63493Z" fill="white"/>
<path d="M5.62207 14.6286L17.5821 29.2571V18.4889C15.7421 18.1841 14.4132 16.5587 14.4132 14.6286C14.4132 12.5968 15.9465 10.8698 17.991 10.6667C20.0354 10.8698 21.5687 12.4952 21.5687 14.6286H29.5421L17.5821 0V10.6667C15.4354 10.6667 13.5954 12.3937 13.5954 14.6286H5.62207Z" fill="white"/>
<path d="M21.8758 0L21.7736 0.101587L33.7336 14.6286H29.6447L19.627 26.7175L21.6714 29.2571L35.0625 14.6286L21.8758 0Z" fill="white"/>
<path d="M15.5378 2.53968L13.4933 0L0 14.6286L13.2889 29.2571L13.3911 29.1556L1.43111 14.6286H5.52L15.5378 2.53968Z" fill="white"/>
<path d="M39 18.6921H41.4533C42.3733 18.6921 42.9867 19.3016 42.9867 20.0127C42.9867 20.7238 42.5778 21.1302 42.0667 21.2318C42.5778 21.3334 43.0889 21.8413 43.0889 22.5524C43.0889 23.3651 42.5778 23.9746 41.5556 23.9746H39V18.6921ZM41.3511 20.927C41.8622 20.927 42.1689 20.6222 42.1689 20.1143C42.1689 19.708 41.8622 19.3016 41.3511 19.3016H39.8178V20.8254H41.3511V20.927ZM41.4533 23.2635C41.9644 23.2635 42.3733 22.9588 42.3733 22.4508C42.3733 22.0445 42.0667 21.6381 41.4533 21.6381H39.92V23.2635H41.4533Z" fill="#00B0F0"/>
<path d="M46.564 18.5905C48.0974 18.5905 49.2218 19.708 49.2218 21.3334C49.2218 22.9587 48.0974 24.0762 46.564 24.0762C45.0307 24.0762 43.9062 22.9587 43.9062 21.3334C43.9062 19.708 44.9285 18.5905 46.564 18.5905ZM46.564 19.3016C45.4396 19.3016 44.724 20.1143 44.724 21.3334C44.724 22.4508 45.4396 23.3651 46.564 23.3651C47.6885 23.3651 48.404 22.4508 48.404 21.3334C48.404 20.2159 47.6885 19.3016 46.564 19.3016Z" fill="#00B0F0"/>
<path d="M50.9604 20.3175L51.0626 18.6921H54.436V23.9746H53.6182V19.4032H51.676L51.5737 20.3175C51.2671 23.6699 50.5515 24.0762 49.5293 24.0762V23.2635C50.2449 23.2635 50.756 22.8572 50.9604 20.3175Z" fill="#00B0F0"/>
<path d="M55.7646 18.6921H59.3424V19.4032H56.5824V23.9746H55.7646V18.6921Z" fill="#00B0F0"/>
<path d="M62.9199 22.8572H60.3644L59.9555 23.9746H59.1377L61.1821 18.6921H62.2044L64.2488 23.9746H63.431L62.9199 22.8572ZM60.5688 22.1461H62.7155L61.6933 19.4032L60.5688 22.1461Z" fill="#00B0F0"/>
<path d="M66.2928 21.7397L65.7816 22.2476V23.9746H64.9639V18.6921H65.7816V21.3334L68.0305 18.6921H69.0528L66.9061 21.2318L69.2572 23.9746H68.235L66.2928 21.7397Z" fill="#00B0F0"/>
<path d="M73.5508 22.8572H70.9952L70.5863 23.9746H69.7686L71.813 18.6921H72.8352L74.8797 23.9746H74.0619L73.5508 22.8572ZM71.1997 22.1461H73.3463L72.3241 19.4032L71.1997 22.1461Z" fill="#00B0F0"/>
<path d="M76.8227 20.3175L76.9249 18.6921H80.2983V23.9746H79.4805V19.4032H77.5383L77.436 20.3175C77.1294 23.6699 76.4138 24.0762 75.3916 24.0762V23.2635C76.1072 23.2635 76.516 22.8572 76.8227 20.3175Z" fill="#00B0F0"/>
<path d="M82.3419 18.6921V22.7556L85.2041 18.6921H86.0219V23.9746H85.2041V19.8095L82.2397 23.9746H81.4219V18.6921H82.3419Z" fill="#00B0F0"/>
<path d="M88.0668 18.6921V22.7556L90.929 18.6921H91.7468V23.9746H91.0312V19.8095L88.0668 23.9746H87.249V18.6921H88.0668ZM88.2712 17.6762L88.6801 17.3714C88.8846 17.6762 89.1912 17.8794 89.6001 17.8794C90.009 17.8794 90.3157 17.6762 90.5201 17.3714L90.929 17.6762C90.6223 18.0825 90.1112 18.3873 89.6001 18.3873C88.9868 18.2857 88.5779 18.0825 88.2712 17.6762Z" fill="#00B0F0"/>
</svg>
