<svg xmlns="http://www.w3.org/2000/svg"><symbol fill="none" id="sprite-360" viewBox="0 0 48 41"><title>360</title><path d="M15.995 28.216c-.936 0-1.758-.186-2.466-.558-.708-.384-1.248-.864-1.62-1.44l.702-.612c.78 1.116 1.902 1.674 3.366 1.674.924 0 1.656-.228 2.196-.684.552-.456.828-1.08.828-1.872 0-.816-.3-1.422-.9-1.818-.588-.408-1.362-.612-2.322-.612-.624 0-.996.006-1.116.018v-.972c.12.012.492.018 1.116.018.864 0 1.584-.192 2.16-.576.588-.384.882-.954.882-1.71 0-.72-.276-1.284-.828-1.692-.552-.42-1.236-.63-2.052-.63-1.236 0-2.31.51-3.222 1.53l-.648-.648c.996-1.212 2.304-1.818 3.924-1.818 1.092 0 2.01.282 2.754.846.744.564 1.116 1.338 1.116 2.322 0 .564-.15 1.062-.45 1.494-.3.432-.63.744-.99.936-.36.18-.738.306-1.134.378.648.072 1.266.366 1.854.882.6.516.9 1.218.9 2.106 0 1.008-.366 1.836-1.098 2.484-.72.636-1.704.954-2.952.954Zm10.583 0a4.06 4.06 0 0 1-1.692-.342 3.64 3.64 0 0 1-1.26-.918 5.172 5.172 0 0 1-.846-1.368 8.021 8.021 0 0 1-.468-1.692 11.738 11.738 0 0 1-.144-1.89c0-.636.048-1.242.144-1.818a7.476 7.476 0 0 1 .522-1.692c.24-.54.528-1.002.864-1.386a3.64 3.64 0 0 1 1.314-.936 4.17 4.17 0 0 1 1.746-.36c1.344 0 2.424.51 3.24 1.53l-.612.756c-.66-.9-1.536-1.35-2.628-1.35-.624 0-1.176.156-1.656.468-.468.3-.834.708-1.098 1.224a6.924 6.924 0 0 0-.594 1.674 8.863 8.863 0 0 0-.198 1.908c0 .252.006.438.018.558.3-.492.774-.948 1.422-1.368a3.769 3.769 0 0 1 2.088-.63c1.14 0 2.07.33 2.79.99.72.648 1.08 1.584 1.08 2.808 0 1.044-.366 1.944-1.098 2.7-.732.756-1.71 1.134-2.934 1.134Zm-.036-.936c.948 0 1.686-.294 2.214-.882.54-.6.81-1.266.81-1.998 0-.948-.276-1.668-.828-2.16-.552-.492-1.278-.738-2.178-.738-.648 0-1.272.192-1.872.576a4.14 4.14 0 0 0-1.404 1.476c.048.612.18 1.182.396 1.71.216.528.57.996 1.062 1.404.492.408 1.092.612 1.8.612Zm12.618.378c-.588.372-1.266.558-2.034.558-.768 0-1.452-.186-2.052-.558a3.945 3.945 0 0 1-1.404-1.476 8.72 8.72 0 0 1-.738-1.98 9.48 9.48 0 0 1-.252-2.196c0-.756.084-1.482.252-2.178a8.315 8.315 0 0 1 .738-1.98 3.992 3.992 0 0 1 1.386-1.476c.6-.372 1.29-.558 2.07-.558.768 0 1.446.186 2.034.558.588.372 1.05.864 1.386 1.476.336.612.588 1.272.756 1.98.168.696.252 1.422.252 2.178 0 .744-.084 1.47-.252 2.178a8.176 8.176 0 0 1-.756 1.998 3.992 3.992 0 0 1-1.386 1.476Zm-2.034-.378c.6 0 1.122-.156 1.566-.468a3.014 3.014 0 0 0 1.044-1.242 6.662 6.662 0 0 0 .54-1.674c.12-.6.18-1.23.18-1.89 0-.66-.06-1.284-.18-1.872a6.362 6.362 0 0 0-.54-1.674 2.87 2.87 0 0 0-1.044-1.242c-.444-.312-.966-.468-1.566-.468-.612 0-1.146.156-1.602.468-.444.3-.792.714-1.044 1.242a7.39 7.39 0 0 0-.54 1.674 9.35 9.35 0 0 0-.18 1.872c0 .66.06 1.29.18 1.89a7.8 7.8 0 0 0 .54 1.674c.252.516.6.93 1.044 1.242.456.312.99.468 1.602.468ZM46.6 16.444c.408.408.612.9.612 1.476s-.204 1.068-.612 1.476a2.064 2.064 0 0 1-1.494.594 2.043 2.043 0 0 1-1.476-.594 2.043 2.043 0 0 1-.594-1.476c0-.576.198-1.068.594-1.476.408-.42.9-.63 1.476-.63.588 0 1.086.21 1.494.63Zm-.09 1.476a1.35 1.35 0 0 0-.414-.99 1.35 1.35 0 0 0-.99-.414 1.33 1.33 0 0 0-.972.414 1.382 1.382 0 0 0-.396.99c0 .384.132.708.396.972s.588.396.972.396.714-.132.99-.396c.276-.276.414-.6.414-.972ZM32.15 8.118l-7.137-.604 4.092-5.878 3.045 6.482Z" fill="#fff"/><path d="M28.806 37.49a18.5 18.5 0 1 1 1.005-31.35" stroke="#fff"/></symbol><symbol class="menu__close-ico" fill="none" id="sprite-close" viewBox="0 0 18 18"><title>close</title><path d="M16.875 1.138a1.245 1.245 0 0 0-1.762 0L9 7.238 2.888 1.125a1.246 1.246 0 0 0-1.763 1.763L7.238 9l-6.113 6.113a1.246 1.246 0 0 0 1.763 1.762L9 10.762l6.113 6.113a1.244 1.244 0 0 0 2.032-.404 1.247 1.247 0 0 0-.27-1.358L10.762 9l6.113-6.112a1.253 1.253 0 0 0 0-1.75Z" fill="#fff"/></symbol><symbol fill="none" id="sprite-controls" viewBox="0 0 138 20"><title>controls</title><path d="M24.5 10H2m0 0 10-9M2 10l10 9m102-9h22.5m0 0-10 9m10-9-10-9" stroke="#fff" stroke-width="1.5"/><circle cx="69" cy="10" r="8.25" stroke="#fff" stroke-width="1.5"/></symbol><symbol fill="none" id="sprite-cross" viewBox="0 0 10 10"><title>cross</title><path d="m1.16 1 7.68 8M9 1.16 1 8.84" stroke="currentColor" stroke-width="1.5"/></symbol><symbol fill="none" id="sprite-full" viewBox="0 0 22 22"><title>full</title><path d="M10.5 10 1 1m0 0v9m0-9h9m2 11 9.5 9m0 0v-9m0 9h-9" stroke="#fff"/></symbol><symbol fill="none" id="sprite-help" viewBox="0 0 24 24"><title>help</title><path d="M17.906 6.584a5.992 5.992 0 0 0-1.39-1.913C15.307 3.548 13.702 2.93 12 2.93s-3.307.618-4.516 1.739a6.002 6.002 0 0 0-1.39 1.915 5.656 5.656 0 0 0-.516 2.364v.633c0 .146.117.263.263.263h1.265a.262.262 0 0 0 .263-.263v-.633C7.369 6.616 9.445 4.72 12 4.72s4.631 1.896 4.631 4.228c0 .957-.34 1.857-.984 2.607a4.716 4.716 0 0 1-2.534 1.5 2.57 2.57 0 0 0-1.446.91 2.598 2.598 0 0 0-.56 1.607v.736c0 .145.117.262.263.262h1.265a.262.262 0 0 0 .263-.262v-.736a.79.79 0 0 1 .609-.771 6.538 6.538 0 0 0 3.5-2.08 5.905 5.905 0 0 0 1.037-1.733 5.675 5.675 0 0 0-.138-4.404ZM12 18.445a1.313 1.313 0 1 0 .002 2.627A1.313 1.313 0 0 0 12 18.445Z" fill="#fff"/></symbol><symbol fill="none" id="sprite-label-bg" viewBox="0 0 66 66"><title>label-bg</title><path fill="#fff" d="m32.426 10 22.427 22.426-22.427 22.427L10 32.426z"/><path stroke="#fff" d="M32.5.707 64.793 33 33 64.793.707 32.5z"/></symbol><symbol fill="none" id="sprite-lift" viewBox="0 0 20 30"><title>lift</title><path stroke="#fff" d="M.5.5H19v29H.5z"/><path fill-rule="evenodd" clip-rule="evenodd" d="M2 27h7V14.25H2V27ZM1 14.25H.75V27H1V14.25ZM18.75 27h-.25V14.25h.25V27ZM10 14.25h7.5V27H10V14.25ZM1.5 7.5H18c-1.647-2.242-4.725-3.75-8.25-3.75-3.525 0-6.603 1.508-8.25 3.75Z" fill="#fff"/></symbol><symbol fill="none" id="sprite-map" viewBox="0 0 25 26"><title>map</title><path d="M1 8.737V24M1 8.737V24M1 8.737l7.5-3.684M1 24l7.5-3.158m0-15.79v3.159m0-3.158L13 7.684M8.5 9.79v2.631m0 2.105v2.632m0 1.579v2.105m0 0 7 3.684m0 0v-2.631m0 2.631 7.5-2.631v-8.948m-7.5 7.369v-2.632m0-2.105v-2.632M19 1.895l-4.5 8.947H24l-5-8.947Z" stroke="currentColor"/></symbol><symbol fill="none" id="sprite-mark" viewBox="0 0 72 137"><title>mark</title><ellipse cx="36" cy="135.5" rx="5" ry="1.5" fill="#000"/><path d="M36 70v65.5" stroke="#000"/></symbol><symbol fill="none" id="sprite-mine-full" viewBox="0 0 158 504"><title>mine-full</title><path d="M2 361v72.5m38.5-191v41m0-89.5v41m81.001 164-.001 28.5m0 7.3v29.7m0 7.403V502.5m.001-139.5-.001 28.5M58.17 288.207l42.048 4 20.453 62.501M21 284.5l-19.107-2v70m38.607-231v64m-8-67.5H10" stroke="#fff" stroke-width="2" stroke-linecap="round"/><path d="m102.09 133.352 18.826-8.785V68.716m-18.826 64.636-25.101-2.51-8.158-1.883H58.79l2.196-15.688 2.197-26.984V71.226m38.907 62.126V75.305m18.826-6.59-9.413 1.256-9.413 5.334m18.826-6.59-13.805-1.254-30.122-2.51-5.648-.628-6.276.628v3.765l-1.882 2.51m38.907 4.079-38.907-4.08" stroke="#fff" stroke-width="1.5"/><path d="M114.641 67.461v-9.1l10.354-5.647h10.355m0 0v29.494L157 85.974v9.413l-14.434 6.275-21.963 10.668V68.716l-37.339-3.451-2.824-10.04-1.255-6.904 4.08-.627 52.085 5.02Z" stroke="#fff" stroke-width="1.5"/><path fill-rule="evenodd" clip-rule="evenodd" d="M58.79 132.097h-5.962v-16.63l-12.864 6.903-7.844-3.765V79.383l-7.845 32.633.141.352-.14-.039H18l14.12-46.124v-43.3l10.668-3.138V3.451L49.063 0l21.964 1.569.314 14.747 7.844 31.69L82.009 61.5l1.255 4.079-11.923-1.255-6.276.627-.313 3.452-1.255 3.137-2.824 41.732-1.883 18.826ZM28.982 119.86Zm36.397-56.165 2.197-25.101 4.706-.941 7.217 26.67-7.217-.628-6.903.628v-.628Zm-5.962-21.65-8.471-.941v14.433l7.53.314.941-13.806Zm-9.099 72.481 2.51.941 5.335-53.655-7.845-.627v53.341Zm21.337-81.58-1.255-5.02-5.02 1.568-15.062-.94v4.392l15.061 1.569 6.276-1.57Zm-4.08-14.748-3.765.628-20.081-1.569v4.079l6.903.628v1.568l14.433.942 5.02-1.57-2.51-4.706Z" fill="#fff"/></symbol><symbol fill="none" id="sprite-mine-lg" viewBox="0 0 158 407"><title>mine-lg</title><path d="M40.5 212v23M2.341 272v63M40.5 181v23m81.001 116.5V344m0 7.5V375m0 7.5V406m0-118v25.5m-63.329-74.293 43.33 6.293 19.499 34m-99.5-45-20-3 .392 32.5m38.608-142.5V173m-8-55h-22.5" stroke="#fff" stroke-width="2" stroke-linecap="round"/><path d="m102.091 133.352 18.826-8.785V68.716m-18.826 64.636-25.101-2.51-8.158-1.883H58.79l2.196-15.688 2.197-26.984V71.226m38.907 62.126V75.305m18.826-6.59-9.413 1.256-9.413 5.334m18.826-6.59-13.805-1.254-30.122-2.51-5.648-.628-6.276.627v3.766l-1.882 2.51m38.907 4.079-38.907-4.08" stroke="#fff" stroke-width="1.5"/><path d="M114.641 67.461v-9.1l10.355-5.647h10.354m0 0v29.494L157 85.973v9.413l-14.433 6.276-21.964 10.668V68.716l-37.338-3.451-2.824-10.041-1.255-6.903 4.078-.627 52.086 5.02Z" stroke="#fff" stroke-width="1.5"/><path fill-rule="evenodd" clip-rule="evenodd" d="M58.791 132.097h-5.962v-16.63l-12.864 6.903-7.844-3.765V79.383l-7.845 32.632.141.353-.14-.039H18l14.12-46.124v-43.3l10.668-3.138V3.451L49.064 0l21.964 1.569.314 14.747 7.844 31.69L82.01 61.5l1.255 4.079-11.923-1.255-6.276.627-.313 3.452-1.255 3.137-2.824 41.732-1.883 18.826ZM28.983 119.86ZM65.38 63.695l2.196-25.101 4.707-.941 7.217 26.67-7.217-.628-6.903.628v-.628Zm-5.962-21.65-8.471-.941v14.433l7.53.314.941-13.806Zm-9.099 72.481 2.51.941 5.335-53.655-7.845-.627v53.341Zm21.337-81.58-1.255-5.02-5.02 1.568-15.062-.941v4.393l15.061 1.569 6.276-1.57Zm-4.08-14.748-3.765.628-20.081-1.569v4.079l6.903.628v1.568l14.433.942 5.02-1.57-2.51-4.706Z" fill="#fff"/></symbol><symbol fill="none" id="sprite-mine-mobile-start" viewBox="0 0 123 466"><title>mine-mobile-start</title><path d="M40 205v41M1.841 325v69.5m119.16 2.8V427M40 156.5v41m81.001 164V390m0 44.403V465m0-139.5V354m-63.33-103.293 42.048 4 20.453 62.501M20.5 247l-19.107-2v72.5M40.001 84v64" stroke="#fff" stroke-width="2" stroke-linecap="round"/><path d="m81.998 96 13.544-6.325V49.468M81.998 96l-18.059-1.807-5.869-1.355h-7.223l1.58-11.294 1.58-19.426V51.275M81.997 96V54.212m13.545-4.744-6.772.904-6.772 3.84m13.544-4.744-9.932-.903-21.67-1.807-4.064-.452-4.515.452v2.71l-1.354 1.807m27.99 2.937-27.99-2.937" stroke="#fff" stroke-width="1.5"/><path d="M91.026 48.565v-6.55l7.45-4.066h7.449m0 0v21.233l15.576 2.71v6.776l-10.384 4.518-15.802 7.68V49.47l-26.862-2.485-2.032-7.228-.902-4.97 2.934-.452 37.472 3.615Z" stroke="#fff" stroke-width="1.5"/><path fill-rule="evenodd" clip-rule="evenodd" d="M50.846 95.096h-4.289V83.124l-9.255 4.97-5.643-2.71V57.147L26.016 80.64l.101.253-.101-.027H21.5L31.659 47.66V16.49l7.675-2.258V2.485L43.849 0 59.65 1.13l.226 10.616 5.643 22.814 2.032 9.713.903 2.936-8.578-.903-4.515.452-.226 2.484-.903 2.259-2.031 30.042-1.355 13.553Zm-21.444-8.81Zm26.185-40.432 1.58-18.07 3.386-.678 5.192 19.2-5.192-.452-4.966.452v-.452Zm-4.29-15.586-6.094-.678v10.391l5.418.226.677-9.939Zm-6.545 52.179 1.806.677L50.395 44.5l-5.643-.452v38.4Zm15.35-58.73-.903-3.613-3.612 1.129-10.835-.678v3.163l10.835 1.13 4.515-1.13Zm-2.935-10.616-2.71.452-14.446-1.13v2.937l4.966.452v1.129l10.384.678 3.611-1.13-1.806-3.388Z" fill="#fff"/></symbol><symbol fill="none" id="sprite-mine-mobile" viewBox="0 0 123 466"><title>mine-mobile</title><path d="M1.842 325v69.5m119.159-33V390m0 7.3V427m0 7.403V465m0-139.499v28.5m-63.33-103.293 42.048 4 20.453 62.5M20.5 247l-19.106-2v73M40.001 84v64M40 205v41m0-89.5v41M32.001 85h-22.5" stroke="#fff" stroke-width="2" stroke-linecap="round"/><path d="m81.998 96 13.544-6.325V49.47M81.998 96l-18.059-1.807-5.869-1.355h-7.223l1.58-11.294 1.58-19.426V51.276M81.997 96V54.212m13.545-4.744-6.772.904-6.772 3.84m13.544-4.744-9.932-.903-21.67-1.807-4.064-.452-4.515.452v2.71l-1.354 1.808m27.99 2.936-27.99-2.936" stroke="#fff" stroke-width="1.5"/><path d="M91.026 48.565v-6.55l7.45-4.066h7.449m0 0v21.233l15.576 2.71v6.777l-10.384 4.517-15.802 7.68V49.47l-26.862-2.485-2.032-7.228-.902-4.97 2.934-.451 37.472 3.614Z" stroke="#fff" stroke-width="1.5"/><path fill-rule="evenodd" clip-rule="evenodd" d="M50.846 95.096h-4.289V83.125l-9.255 4.969-5.643-2.71V57.147L26.016 80.64l.101.254-.101-.028H21.5L31.659 47.66V16.49l7.675-2.258V2.485L43.849 0 59.65 1.13l.226 10.616 5.643 22.814 2.032 9.713.903 2.936-8.578-.903-4.515.452-.226 2.484-.903 2.26-2.031 30.041-1.355 13.553Zm4.74-49.242 1.581-18.07 3.386-.678 5.192 19.2-5.192-.452-4.966.452v-.452Zm-4.288-15.586-6.095-.677v10.39l5.418.226.677-9.939Zm-6.546 52.179 1.806.677L50.395 44.5l-5.643-.452v38.4Zm15.35-58.73-.903-3.613-3.612 1.13-10.835-.679v3.163l10.835 1.13 4.515-1.13Zm-2.935-10.616-2.71.452-14.446-1.13v2.937l4.966.452v1.13l10.384.677 3.611-1.13-1.806-3.388Z" fill="#fff"/></symbol><symbol fill="none" id="sprite-mine-tablet-start" viewBox="0 0 205 775"><title>mine-tablet-start</title><path d="M2 399.5v90M40.5 281v41m0-89.5v41m81.001 226v90m.001 7.8-.001 89.7m.001 7.403V773.5m-.001-371v90M58.17 326.707l42.048 4 20.453 62.501M21 323l-19.107-2v70M40.5 160v64" stroke="#fff" stroke-width="2" stroke-linecap="round"/><path d="m130.523 178 25.192-11.727v-74.55M130.523 178l-33.589-3.351-10.916-2.512H72.582l2.94-20.942 2.938-36.018V95.073M130.523 178v-77.482m25.192-8.795-12.596 1.675-12.596 7.12m25.192-8.795-18.474-1.676-40.307-3.35-7.557-.838-8.398.838v5.026l-2.519 3.35m52.063 5.445L78.46 95.073" stroke="#fff" stroke-width="1.5"/><path d="M147.318 90.048V77.902l13.855-7.539h13.856m0 0v39.369L204 114.758v12.565l-19.314 8.376-29.391 14.24V91.723l-49.964-4.607-3.778-13.402-1.68-9.215 5.458-.837 69.698 6.701Z" stroke="#fff" stroke-width="1.5"/><path fill-rule="evenodd" clip-rule="evenodd" d="M72.582 176.324h-7.977v-22.197l-17.215 9.214-10.496-5.026v-52.353L26.397 149.52l.189.47-.189-.052H18l18.894-61.566V30.574l14.275-4.188V4.607L59.567 0l29.39 2.094.42 19.685 10.497 42.3 3.778 18.01 1.68 5.445-15.955-1.675-8.397.837-.42 4.607-1.68 4.189-3.778 55.703-2.52 25.129ZM32.695 159.99ZM81.4 85.021l2.94-33.505 6.297-1.257 9.657 35.6-9.657-.838-9.237.838v-.838Zm-7.977-28.899-11.337-1.256v19.266l10.077.418 1.26-18.428ZM61.246 152.87l3.36 1.257 7.137-71.62-10.497-.837v71.2ZM89.797 43.976l-1.68-6.7-6.717 2.093-20.154-1.256v5.864L81.4 46.07l8.397-2.094Zm-5.459-19.685-5.038.838-26.872-2.094v5.445l9.238.837v2.094l19.313 1.257 6.718-2.094-3.359-6.283Z" fill="#fff"/></symbol><symbol fill="none" id="sprite-mine-tablet" viewBox="0 0 205 775"><title>mine-tablet</title><path d="M2 399.5v90M40.5 281v41m0-89.5v41m81.001 226v90m.001 7.8-.001 89.7m.001 7.403V773.5m-.001-371v90M58.17 326.707l42.048 4 20.453 62.501M21 323l-19.107-2v70M40.5 160v64m-2-67.5H10" stroke="#fff" stroke-width="2" stroke-linecap="round"/><path d="m130.523 178 25.192-11.727v-74.55M130.523 178l-33.589-3.351-10.916-2.512H72.582l2.94-20.942 2.938-36.018V95.073M130.523 178v-77.482m25.192-8.795-12.596 1.675-12.596 7.12m25.192-8.795-18.474-1.676-40.307-3.35-7.557-.838-8.398.838v5.026l-2.519 3.35m52.063 5.445L78.46 95.073" stroke="#fff" stroke-width="1.5"/><path d="M147.318 90.048V77.902l13.855-7.539h13.856m0 0v39.369L204 114.758v12.565l-19.314 8.376-29.391 14.24V91.723l-49.964-4.607-3.778-13.402-1.68-9.215 5.458-.837 69.698 6.701Z" stroke="#fff" stroke-width="1.5"/><path fill-rule="evenodd" clip-rule="evenodd" d="M72.582 176.324h-7.977v-22.197l-17.215 9.214-10.496-5.026v-52.353L26.397 149.52l.189.47-.189-.052H18l18.894-61.566V30.574l14.275-4.188V4.607L59.567 0l29.39 2.094.42 19.685 10.497 42.3 3.778 18.01 1.68 5.445-15.955-1.675-8.397.837-.42 4.607-1.68 4.189-3.778 55.703-2.52 25.129ZM32.695 159.99ZM81.4 85.021l2.94-33.505 6.297-1.257 9.657 35.6-9.657-.838-9.237.838v-.838Zm-7.977-28.899-11.337-1.256v19.266l10.077.418 1.26-18.428ZM61.246 152.87l3.36 1.257 7.137-71.62-10.497-.837v71.2ZM89.797 43.976l-1.68-6.7-6.717 2.093-20.154-1.256v5.864L81.4 46.07l8.397-2.094Zm-5.459-19.685-5.038.838-26.872-2.094v5.445l9.238.837v2.094l19.313 1.257 6.718-2.094-3.359-6.283Z" fill="#fff"/></symbol><symbol fill="none" id="sprite-mine" viewBox="0 0 140 135"><title>mine</title><path d="m84.09 133.352 18.826-8.785V68.716M84.09 133.352l-25.101-2.51-8.158-1.882H40.79l2.196-15.689 2.197-26.984V71.226m38.907 62.126V75.305m18.826-6.59-9.413 1.256-9.413 5.334m18.826-6.59-13.805-1.254-30.122-2.51-5.648-.628-6.276.628v3.765l-1.882 2.51m38.907 4.079-38.907-4.079" stroke="#fff" stroke-width="1.5"/><path d="M96.641 67.461v-9.1l10.354-5.647h10.355m0 0v29.494L139 85.974v9.413l-14.434 6.275-21.963 10.668V68.716l-37.339-3.451-2.824-10.04-1.255-6.904 4.08-.627 52.085 5.02Z" stroke="#fff" stroke-width="1.5"/><path fill-rule="evenodd" clip-rule="evenodd" d="M40.79 132.097h-5.962v-16.63l-12.864 6.903-7.844-3.765V79.383l-7.845 32.633.141.352-.14-.039H0l14.12-46.124v-43.3l10.668-3.138V3.451L31.063 0l21.964 1.569.314 14.747 7.844 31.69L64.009 61.5l1.255 4.079-11.923-1.255-6.276.627-.313 3.452-1.255 3.137-2.824 41.732-1.883 18.826ZM10.982 119.86Zm36.397-56.164 2.197-25.102 4.706-.941 7.217 26.67-7.217-.627-6.903.627v-.627Zm-5.962-21.65-8.471-.942v14.433l7.53.314.941-13.806Zm-9.099 72.48 2.51.941 5.335-53.654-7.845-.628v53.341Zm21.337-81.58-1.255-5.02-5.02 1.569-15.062-.942v4.393l15.061 1.569 6.276-1.57Zm-4.08-14.748-3.765.628-20.081-1.569v4.08l6.903.627v1.569l14.433.94 5.02-1.568-2.51-4.707Z" fill="#fff"/></symbol><symbol fill="none" id="sprite-minus" viewBox="0 0 15 15"><title>minus</title><path d="m1 13.5 12.5-12M1.25 1.25l12 12.5" stroke="#fff" stroke-width="1.5"/></symbol><symbol fill="none" id="sprite-plus" viewBox="0 0 18 18"><title>plus</title><path d="m.224 8.709 17.324.353M9.063.224l-.354 17.324"/></symbol><symbol fill="none" id="sprite-sheme-point-default" viewBox="0 0 41 13"><title>sheme-point-default</title><path d="M40.001 6.5c0 .673-.42 1.399-1.376 2.134-.95.73-2.355 1.408-4.136 1.987C30.932 11.777 25.986 12.5 20.5 12.5c-5.485 0-10.43-.723-13.988-1.88-1.78-.578-3.186-1.257-4.136-1.986C1.42 7.899 1 7.174 1 6.5c0-.673.42-1.399 1.376-2.134.95-.73 2.355-1.408 4.136-1.987C10.07 1.223 15.016.5 20.501.5c5.485 0 10.43.723 13.988 1.88 1.78.578 3.186 1.257 4.136 1.986C39.58 5.101 40 5.826 40 6.5Z" fill="var(--color-path)" fill-opacity=".4" stroke="var(--color-path)"/><ellipse cx="20.501" cy="6.5" rx="6" ry="1.5" fill="var(--color-ellipse)"/></symbol><symbol fill="none" id="sprite-sheme-point" viewBox="0 0 41 14"><title>sheme-point</title><path d="M40.001 7c0 .673-.42 1.399-1.376 2.134-.95.73-2.355 1.408-4.136 1.987C30.932 12.277 25.986 13 20.5 13c-5.485 0-10.43-.723-13.988-1.88-1.78-.578-3.186-1.257-4.136-1.986C1.421 8.399 1.001 7.674 1.001 7c0-.673.42-1.399 1.376-2.134.95-.73 2.355-1.408 4.136-1.987C10.07 1.723 15.016 1 20.501 1c5.485 0 10.43.723 13.988 1.88 1.78.578 3.186 1.257 4.136 1.986C39.58 5.601 40 6.326 40 7Z" fill="var(--color-path)" fill-opacity=".4" stroke="var(--color-path)"/><ellipse cx="20.501" cy="7" rx="6" ry="1.5" fill="var(--color-ellipse)"/></symbol><symbol style="width:100%;height:100%;transform:translate3d(0,0,0)" id="sprite-test" viewBox="0 0 2000 1000"><title>test</title><defs><clipPath id="a"><path d="M0 0h2000v1000H0z"/></clipPath><mask id="b"><path fill="#fff" d="m-18.406 141.331.017 6.979h1556.397l-.016-6.979H-18.406" fill-opacity=".3"/><path fill="#fff" d="m-19.938 131.3.288 14.052h1557.58l-.286-13.927s-57.973.011-145.815-.125c-69.983-.108-159.114-.119-253.221-.075-63.945.03-130.258-.041-194.374.019-68.209.064-133.906-.053-191.972-.077-55.321-.023-116.836.095-180.783.121-71.795.029-145.966-.061-216.789.002-81.781.073-158.719.061-221.401 0-92.026-.09-153.227.01-153.227.01" fill-opacity=".6"/><path fill="#fff" d="m-19.624 135.443.289 13.679h1560.367l-.288-13.679H-19.624"/><path fill="#fff" d="m-18.312 342.331.017 6.979h1556.397l-.016-6.979H-18.312" fill-opacity=".3"/><path fill="#fff" d="m-19.875 336.3.288 14.052h1557.579l-.286-13.927s-57.973.011-145.815-.125c-69.983-.108-159.113-.119-253.22-.075-63.945.03-130.259-.041-194.375.019-68.209.064-133.906-.053-191.972-.077-55.321-.023-116.836.095-180.783.121-71.795.029-145.966-.061-216.789.002-81.781.073-158.718.061-221.4 0-92.026-.09-153.227.01-153.227.01" fill-opacity=".6"/><path fill="#fff" d="m-19.248 343.443.289 13.679h1560.367l-.288-13.679H-19.248"/></mask></defs><g clip-path="url(#a)"><g mask="url(#b)" transform="translate(334 329)" style="display:block"><path fill="#FFF" d="M.091 12.15c13.199 0 23.699-5.28 31.5-15.84L21.51-12.15C16.11-4.71 8.971-.99.091-.99c-9.12 0-16.32-3.72-21.601-11.16l-10.081 8.46C-23.551 6.87-12.989 12.15.091 12.15z" transform="translate(750.228 15.27)"/><path fill="#FFF" d="M34.56 36.81c4.8-4.44 7.2-10.08 7.2-16.92 0-5.16-1.56-9.72-4.681-13.68C33.96 2.25 30-.27 25.2-1.35c4.32-1.2 7.86-3.54 10.62-7.02 2.759-3.48 4.14-7.74 4.14-12.78 0-6.24-2.34-11.52-7.02-15.84s-11.22-6.48-19.62-6.48h-55.08v86.94h56.7c8.4 0 14.94-2.22 19.62-6.66zM-18.9-24.75H8.64c2.52 0 4.5.72 5.939 2.16 1.441 1.32 2.161 3.06 2.161 5.22 0 2.04-.78 3.78-2.34 5.22-1.44 1.32-3.36 1.98-5.76 1.98H-18.9v-14.58zm0 49.5V8.55H9.36c2.76 0 4.92.78 6.48 2.34 1.68 1.56 2.52 3.48 2.52 5.76 0 2.52-.84 4.5-2.52 5.94-1.56 1.44-3.72 2.16-6.48 2.16H-18.9z" transform="translate(553.19 79.53)"/><path fill="#FFF" d="M18-11.07v54.54h22.86v-86.94H17.82L-18 9.09v-52.56h-22.86v86.94h21.96L18-11.07z" transform="translate(256.302 79.53)"/><path fill="#FFF" d="M42.48 43.47 7.02-4.05 41.4-43.47H13.32l-32.94 38.7v-38.7h-22.86v86.94h22.86V21.15L-9.18 9.99l23.04 33.48h28.62z" transform="translate(166.994 79.53)"/><path fill="#FFF" d="M6.84 62.1c22.08 0 38.82-9.84 50.22-29.52L35.1 21.96c-2.64 5.16-6.54 9.36-11.7 12.6-5.04 3.24-10.56 4.86-16.56 4.86-10.92 0-19.92-3.72-27-11.16C-27.24 20.82-30.78 11.4-30.78 0c0-11.4 3.54-20.82 10.62-28.26 7.08-7.44 16.08-11.16 27-11.16 6 0 11.52 1.68 16.56 5.04 5.16 3.24 9.06 7.38 11.7 12.42l21.96-10.8C46.02-52.32 29.28-62.1 6.84-62.1c-18.24 0-33.48 5.82-45.72 17.46C-51-33.12-57.06-18.24-57.06 0c0 18.24 6.06 33.18 18.18 44.82C-26.64 56.34-11.4 62.1 6.84 62.1z" transform="translate(58.18 63.06)"/><path fill="#FFF" d="M-18-23.49h36v66.96h22.86v-86.94h-81.72v86.94H-18v-66.96z" transform="translate(355.316 79.53)"/><path fill="#FFF" d="M6.93-25.29c8.04 0 14.16 3.12 18.36 9.359l14.94-14.04c-7.56-10.439-19.02-15.66-34.38-15.66-13.44 0-24.48 4.261-33.12 12.78-8.64 8.521-12.96 19.441-12.96 32.76 0 13.441 4.32 24.421 12.96 32.941 8.64 8.519 19.68 12.78 33.12 12.78 15.36 0 26.82-5.28 34.38-15.84L25.29 15.93c-4.44 6.24-10.56 9.36-18.36 9.36-6.96 0-12.66-2.341-17.1-7.02-4.32-4.68-6.48-10.8-6.48-18.361 0-7.559 2.16-13.619 6.48-18.179 4.44-4.68 10.14-7.02 17.1-7.02z" transform="translate(40.99 259.53)"/><path fill="#FFF" d="M-35.82-23.49h24.3v66.96h23.04v-66.96h24.3v-19.98h-71.64v19.98z" transform="translate(118.304 259.53)"/><path fill="#FFF" d="M33.39 32.49c8.4-8.88 12.6-19.74 12.6-32.58s-4.2-23.64-12.6-32.4c-8.4-8.76-19.56-13.14-33.48-13.14-13.92 0-25.08 4.38-33.48 13.14-8.281 8.76-12.42 19.56-12.42 32.4s4.139 23.7 12.42 32.58c8.4 8.76 19.56 13.14 33.48 13.14 13.92 0 25.08-4.38 33.48-13.14zm-49.68-14.4c-3.96-4.92-5.94-10.98-5.94-18.18 0-7.08 1.98-13.02 5.94-17.82 3.96-4.92 9.359-7.38 16.2-7.38 6.84 0 12.239 2.46 16.199 7.38 4.08 4.8 6.121 10.74 6.121 17.82 0 7.2-2.041 13.26-6.121 18.18-3.96 4.8-9.359 7.2-16.199 7.2-6.841 0-12.24-2.4-16.2-7.2z" transform="translate(651.909 79.53)"/><path fill="#FFF" d="M-.09-29.701c-9.24 0-16.74 2.881-22.5 8.642C-28.229-15.299-31.05-8.28-31.05 0c0 8.281 2.821 15.3 8.46 21.061 5.76 5.76 13.26 8.64 22.5 8.64 9.361 0 16.861-2.88 22.5-8.64C28.17 15.3 31.05 8.281 31.05 0c0-8.28-2.88-15.299-8.64-21.059-5.639-5.761-13.139-8.642-22.5-8.642zm10.26 41.762C7.65 14.941 4.231 16.38-.09 16.38c-4.32 0-7.74-1.439-10.26-4.319-2.4-3-3.6-7.021-3.6-12.061s1.2-8.939 3.6-11.7c2.52-2.88 5.94-4.319 10.26-4.319 4.44 0 7.861 1.439 10.26 4.319 2.521 2.88 3.78 6.781 3.78 11.7 0 5.04-1.259 9.061-3.78 12.061z" transform="translate(657.086 210.3)"/><path fill="#FFF" d="m-30.06-22.05 14.58 15.3L4.5-27.09v87.12h25.56V-60.03H7.74l-37.8 37.98z" transform="translate(720.138 242.97)"/><path fill="#FFF" d="M17.82-43.47-17.999 9.09v-52.56H-40.86v86.94h21.96l36.901-54.54v54.54H40.86v-86.94H17.82z" transform="translate(750.318 79.53)"/><path fill="#FFF" d="M-.09-45.63c-13.92 0-25.08 4.38-33.48 13.14-8.28 8.76-12.42 19.56-12.42 32.4 0 12.841 4.14 23.701 12.42 32.58 8.4 8.761 19.56 13.14 33.48 13.14 13.92 0 25.08-4.379 33.48-13.14 8.4-8.879 12.6-19.739 12.6-32.58 0-12.84-4.2-23.64-12.6-32.4-8.4-8.76-19.56-13.14-33.48-13.14zm16.2 63.721c-3.96 4.8-9.36 7.199-16.2 7.199s-12.24-2.399-16.2-7.199c-3.96-4.92-5.94-10.98-5.94-18.181 0-7.079 1.98-13.019 5.94-17.819 3.96-4.92 9.36-7.38 16.2-7.38s12.24 2.46 16.2 7.38c4.08 4.8 6.12 10.74 6.12 17.819 0 7.201-2.04 13.261-6.12 18.181z" transform="translate(303.538 259.53)"/><path fill="#FFF" d="M-31.049-2.43c-1.32 10.32-3.06 17.641-5.22 21.96-2.16 4.2-5.04 6.3-8.64 6.3v18.72c10.92 0 19.26-3.54 25.02-10.62 5.88-7.2 9.72-18.42 11.52-33.66l2.88-24.84h27.54v66.96H44.91v-86.94h-70.379l-5.58 42.12z" transform="translate(397.898 260.61)"/><path fill="#FFF" d="M25.2-1.349c4.32-1.201 7.86-3.54 10.62-7.02 2.76-3.48 4.14-7.74 4.14-12.78 0-6.24-2.34-11.521-7.02-15.841-4.68-4.32-11.22-6.48-19.62-6.48h-55.08v86.94h56.7c8.4 0 14.94-2.219 19.62-6.659 4.8-4.441 7.2-10.08 7.2-16.92 0-5.16-1.56-9.72-4.68-13.68-3.12-3.96-7.08-6.48-11.88-7.56zm-44.1-23.4H8.64c2.52 0 4.5.72 5.94 2.159 1.44 1.321 2.16 3.061 2.16 5.221 0 2.04-.78 3.779-2.34 5.22-1.44 1.32-3.36 1.98-5.76 1.98H-18.9v-14.58zm34.74 47.34c-1.56 1.439-3.72 2.16-6.48 2.16H-18.9v-16.2H9.36c2.76 0 4.92.78 6.48 2.34 1.68 1.559 2.52 3.479 2.52 5.76 0 2.52-.84 4.5-2.52 5.94z" transform="translate(204.82 259.53)"/><path fill="#FFF" d="M-.09-45.63c-13.92 0-25.079 4.38-33.48 13.14-8.279 8.76-12.421 19.56-12.421 32.4s4.142 23.7 12.421 32.58c8.401 8.76 19.56 13.14 33.48 13.14 13.92 0 25.08-4.38 33.479-13.14C41.79 23.61 45.99 12.75 45.99-.09s-4.2-23.64-12.601-32.4C24.99-41.25 13.83-45.63-.09-45.63zm16.201 63.72c-3.96 4.8-9.361 7.2-16.201 7.2s-12.24-2.4-16.2-7.2c-3.96-4.92-5.94-10.98-5.94-18.18 0-7.08 1.98-13.02 5.94-17.82 3.96-4.92 9.36-7.38 16.2-7.38s12.241 2.46 16.201 7.38c4.08 4.8 6.119 10.74 6.119 17.82 0 7.2-2.039 13.26-6.119 18.18z" transform="translate(453.88 79.53)"/><path fill="#FFF" d="M28.17 15.391-27.45-60.03h-26.28V60.03h25.56v-78.3l57.239 78.3H53.73V-60.03H28.17v75.421z" transform="translate(555.026 242.97)"/></g></g></symbol><symbol fill="none" id="sprite-tower-full" viewBox="0 0 16 224"><title>tower-full</title><path d="M9.967 29.249c.056-.15 0-.4 0-.4-.056-.2-.28-.4-.559-.55-.782-.399-2.067-.399-2.793 0-.392.2-.615.5-.615.7v193.002c0 .25.223.549.615.699.726.4 2.067.4 2.793 0 .503-.25.67-.599.559-.899V29.249Z" fill="#fff" stroke="#44688C" stroke-miterlimit="10"/><path d="m9.143 32.007-7.257-3.442-.057-18.125 7.257 4.187.057 17.38ZM7.829.631l7.257 4.245c-.229-.115-.515-.115-.857.057L6.97.746c.343-.23.629-.23.858-.115Z" fill="#053354"/><path d="M14.229 4.99 6.97.746c.058-.058.115-.058.172-.058L14.4 4.933c-.057 0-.114 0-.171.057Zm.171-.114L7.143.63c.057 0 .114-.057.114-.057l7.257 4.244c0 .058-.057.058-.114.058Z" fill="#053354"/><path d="M14.514 4.818 7.257.631h.114l7.258 4.245c0-.058-.058-.058-.115-.058Zm.115 0L7.37.574h.115l7.257 4.244h-.114Zm.114 0L7.486.574h.057L14.8 4.818h-.057Z" fill="#053354"/><path d="M14.8 4.818 7.543.574H7.6l7.257 4.244H14.8Z" fill="#053354"/><path d="M14.857 4.818 7.6.574h.057l7.257 4.244h-.057Zm.057 0L7.714.574h.057l7.258 4.244h-.115Z" fill="#053354"/><path d="M15.029 4.876 7.77.63s.058 0 .058.057l7.257 4.245-.057-.057Zm.057 0L7.829.63l7.257 4.245Zm-6 9.751L1.829 10.44l-1.2-4.302 7.257 4.244 1.2 4.245Zm-.115-6.654-7.2-4.187 5.2-3.04L14.23 4.99 8.97 7.973Z" fill="#053354"/><path d="M7.886 10.382.629 6.138c-.229-.746.343-1.95 1.143-2.41l7.257 4.245c-.8.459-1.372 1.664-1.143 2.41Z" fill="#053354"/><path d="M7.886 10.382.629 6.138c-.057-.172-.057-.344-.057-.574L7.829 9.81c0 .23 0 .401.057.573Zm-.057-.573L.572 5.564c0-.057 0-.115.057-.172l7.257 4.245c-.057.057-.057.114-.057.172Z" fill="#053354"/><path d="M7.886 9.637.629 5.449c0-.057 0-.114.057-.114l7.257 4.244c-.057 0-.057 0-.057.058Zm0-.115L.629 5.277c0-.057 0-.057.057-.115l7.257 4.245s-.057.057-.057.115Z" fill="#053354"/><path d="M7.943 9.407.686 5.163c0-.058 0-.058.057-.115L8 9.293c-.057 0-.057.057-.057.114Z" fill="#053354"/><path d="M8 9.292.743 5.048c0-.058 0-.058.057-.115L8 9.178v.114Z" fill="#053354"/><path d="M8 9.178.743 4.933c0-.057.057-.057.057-.115l7.257 4.245c0 .057 0 .057-.057.115Z" fill="#053354"/><path d="M8.057 9.063.8 4.818c0-.057.057-.057.057-.114l7.257 4.244c0 .058-.057.058-.057.115Z" fill="#053354"/><path d="M8.114 8.948.857 4.761c0-.057.057-.057.057-.115l7.257 4.245-.057.057Z" fill="#053354"/><path d="M8.171 8.891.914 4.646c0-.057.057-.057.057-.114L8.23 8.776s-.058.058-.058.115Z" fill="#053354"/><path d="M8.229 8.776.97 4.532c0-.058.058-.058.058-.115l7.257 4.245c0 .057-.057.057-.057.114Zm.057-.115L1.029 4.417c0-.058.057-.058.057-.115l7.257 4.245c0 .057 0 .057-.057.114Zm.114-.114L1.143 4.302s.057-.057.057-.115l7.257 4.245c0 .057-.057.057-.057.115Z" fill="#053354"/><path d="M8.457 8.432 1.2 4.187c.057-.057.057-.114.114-.114l7.258 4.244c0 .058-.058.058-.115.115Zm.172-.115L1.372 4.073c.114-.115.228-.23.4-.287L9.029 8.03c-.172.057-.286.172-.4.286Z" fill="#053354"/><path d="M14.229 4.99c.8-.458 1.371.058 1.143 1.09l-1.2 5.679.057 17.323-5.086 2.925-.057-17.323-1.257-4.244C7.6 9.694 8.17 8.49 8.97 8.03l5.258-3.04Z" fill="#fff"/><path d="M7.486.574c.057 0 .057 0 0 0h.228s.057 0 .057.057l7.258 4.245h-.058c.343.172.458.573.343 1.204l-1.2 5.679.057 17.323-5.028 2.925-7.257-3.442-.057-18.125L.57 6.195v-.861c0-.057 0-.114.058-.114v-.058c0-.057 0-.057.057-.114 0-.058 0-.058.057-.115 0 0 0-.057.057-.057 0-.058.057-.058.057-.115s.057-.057.057-.115c0-.057.057-.057.057-.115 0-.057.058-.057.058-.114 0-.058.057-.058.057-.115s.057-.057.057-.115c.057-.057.057-.114.114-.114l.057-.058.057-.057c.058-.058.172-.115.229-.172L6.857.746c.057-.058.114-.058.172-.058h.285L7.43.574h.057Zm7.085 4.244h.172-.172Zm.4 0c-.057 0-.057 0 0 0h-.114.114Zm-.514.058c.057 0 .057 0 0 0ZM7.486 0h-.172c-.057 0-.114 0-.171.057h-.114s-.058 0-.058.058c-.057.057-.171.057-.228.114L1.486 3.27c-.115.058-.229.115-.343.23l-.057.057c-.057.058-.115.058-.115.115L.8 3.843l-.114.115c-.057.057-.057.115-.115.172 0 .057-.057.057-.057.115-.057 0-.057.057-.114.114 0 .058-.057.058-.057.115s-.057.057-.057.115v.057s0 .058-.057.115c0 .057-.058.115-.058.115 0 .057-.057.114-.057.114v.058l.515.172-.572-.172v.057c0 .057-.057.115-.057.172v.115l.571.115L0 5.392v.516c0 .172.057.287.057.402l1.2 4.187.057 18.068c0 .23.115.402.343.517l7.257 3.441c.057.057.172.057.229.057.114 0 .171 0 .286-.057l5.028-2.925a.603.603 0 0 0 .286-.516l-.057-17.266 1.2-5.621c.228-.918-.172-1.549-.572-1.778L8.114.172C8.057.115 8 .115 8 .115c-.057 0-.057-.058-.114-.058h-.229C7.543 0 7.543 0 7.486 0Z" fill="#fff"/></symbol><symbol fill="none" id="sprite-tower-md" viewBox="0 0 11 147"><title>tower-md</title><path d="M6.526 19.15c.036-.098 0-.262 0-.262-.037-.13-.183-.262-.366-.36-.512-.261-1.353-.261-1.829 0-.256.131-.402.328-.402.458v126.36c0 .164.146.36.402.458.476.262 1.354.262 1.83 0 .328-.163.438-.392.365-.589V19.15Z" fill="#fff" stroke="#44688C" stroke-miterlimit="10"/><g clip-path="url(#a)"><path d="m5.986 20.956-4.751-2.254-.038-11.867L5.95 9.577l.037 11.379ZM5.126.413l4.75 2.78c-.149-.076-.336-.076-.56.037L4.564.489c.225-.15.412-.15.562-.076Z" fill="#053354"/><path d="M9.316 3.267 4.564.488c.038-.037.075-.037.113-.037L9.428 3.23c-.037 0-.075 0-.112.037Zm.112-.075L4.677.413c.037 0 .075-.037.075-.037l4.75 2.779c0 .037-.037.037-.074.037Z" fill="#053354"/><path d="M9.503 3.155 4.752.413h.075l4.751 2.78c0-.038-.037-.038-.075-.038Zm.074 0L4.827.375H4.9l4.751 2.78h-.075Zm.076 0L4.9.375h.038l4.751 2.78h-.037Z" fill="#053354"/><path d="M9.69 3.155 4.938.375h.038l4.751 2.78H9.69Z" fill="#053354"/><path d="M9.727 3.155 4.976.375h.037l4.751 2.78h-.037Zm.038 0L5.05.375h.037l4.752 2.78h-.075Z" fill="#053354"/><path d="M9.84 3.192 5.087.413s.037 0 .037.038L9.877 3.23l-.038-.038Zm.037 0L5.126.413l4.751 2.78ZM5.948 9.577 1.197 6.835.41 4.02l4.751 2.779.786 2.779ZM5.874 5.22 1.16 2.48 4.565.489l4.751 2.779L5.874 5.22Z" fill="#053354"/><path d="m5.162 6.798-4.75-2.78c-.15-.488.224-1.276.747-1.577l4.752 2.78c-.524.3-.898 1.088-.749 1.577Z" fill="#053354"/><path d="M5.163 6.798.41 4.018c-.037-.112-.037-.225-.037-.375l4.751 2.78c0 .15 0 .262.038.375Zm-.038-.376L.374 3.643c0-.037 0-.075.037-.113l4.752 2.78c-.038.037-.038.075-.038.112Z" fill="#053354"/><path d="M5.162 6.31.412 3.567c0-.038 0-.075.037-.075l4.75 2.779c-.037 0-.037 0-.037.037Zm0-.076L.412 3.455c0-.037 0-.037.037-.075l4.75 2.78s-.037.037-.037.074ZM5.2 6.16.45 3.38c0-.037 0-.037.037-.075l4.75 2.78c-.036 0-.036.037-.036.074Z" fill="#053354"/><path d="M5.238 6.084.486 3.305c0-.037 0-.037.038-.075l4.714 2.779v.075Z" fill="#053354"/><path d="M5.238 6.009.486 3.229c0-.037.038-.037.038-.074l4.751 2.779c0 .037 0 .037-.037.075Zm.037-.075L.523 3.154c0-.037.038-.037.038-.074l4.751 2.779c0 .037-.037.037-.037.075Z" fill="#053354"/><path d="M5.313 5.859.562 3.117c0-.037.037-.037.037-.075l4.751 2.78-.037.037Z" fill="#053354"/><path d="M5.35 5.821.599 3.042c0-.037.037-.037.037-.075l4.751 2.78s-.037.037-.037.074Z" fill="#053354"/><path d="M5.387 5.746.636 2.967c0-.037.037-.037.037-.075l4.751 2.779c0 .038-.037.038-.037.075Z" fill="#053354"/><path d="M5.424 5.671.673 2.892c0-.038.037-.038.037-.075l4.752 2.779c0 .037 0 .037-.038.075Zm.076-.075L.747 2.816s.037-.037.037-.074L5.537 5.52c0 .037-.038.037-.038.075Z" fill="#053354"/><path d="M5.536 5.52.786 2.743c.037-.038.037-.075.074-.075l4.751 2.779c0 .037-.037.037-.075.075Zm.113-.074L.897 2.666a.671.671 0 0 1 .262-.187l4.752 2.779c-.113.037-.187.113-.262.188Z" fill="#053354"/><path d="M9.315 3.268c.524-.3.898.037.748.713L9.278 7.7l.037 11.341-3.33 1.916-.037-11.342-.823-2.779c-.15-.488.225-1.277.748-1.577l3.442-1.99Z" fill="#fff"/><path d="M4.901.376c.037 0 .037 0 0 0h.15s.037 0 .037.037l4.751 2.78h-.037c.224.112.3.375.224.788l-.785 3.718.037 11.341-3.292 1.916-4.751-2.254-.038-11.867-.823-2.779v-.563c0-.038 0-.075.038-.075V3.38c0-.037 0-.037.037-.075 0-.037 0-.037.037-.075 0 0 0-.038.038-.038 0-.037.037-.037.037-.075 0-.037.038-.037.038-.075 0-.037.037-.037.037-.075 0-.037.037-.037.037-.075s.038-.038.038-.075c0-.038.037-.038.037-.075.038-.038.038-.075.075-.075l.037-.038.038-.037c.037-.038.112-.076.15-.113L4.489.489C4.527.45 4.564.45 4.602.45h.187l.075-.075H4.9ZM9.54 3.155h.112-.112Zm.262 0c-.037 0-.037 0 0 0h-.075.075Zm-.337.037c.038 0 .038 0 0 0ZM4.901 0h-.112c-.038 0-.075 0-.113.038h-.074s-.038 0-.038.037c-.037.038-.112.038-.15.076L.974 2.14a.782.782 0 0 0-.225.15l-.037.038c-.038.037-.075.037-.075.075l-.112.112-.075.076c-.037.037-.037.075-.075.112 0 .038-.037.038-.037.075-.038 0-.038.038-.075.075 0 .038-.038.038-.038.076 0 .037-.037.037-.037.075v.037s0 .038-.037.075c0 .038-.038.075-.038.075 0 .038-.037.076-.037.076v.037l.337.113-.375-.113v.038c0 .037-.037.075-.037.112v.075l.374.076L0 3.53v.338c0 .113.037.188.037.263l.786 2.742.037 11.83c0 .15.075.262.225.337l4.751 2.254c.038.037.112.037.15.037.075 0 .112 0 .187-.037l3.292-1.916a.395.395 0 0 0 .187-.338L9.615 7.736l.785-3.68c.15-.6-.112-1.014-.374-1.164L5.312.113C5.275.075 5.238.075 5.238.075 5.2.075 5.2.038 5.163.038h-.15C4.938 0 4.938 0 4.901 0Z" fill="#fff"/></g><defs><clipPath id="a"><path fill="#fff" d="M0 0h10.475v21.605H0z"/></clipPath></defs></symbol><symbol fill="none" id="sprite-tower-sm" viewBox="0 0 12 175"><title>tower-sm</title><path d="m6.737 21.608.245-.047-.002-.01c-.06-.252-.273-.455-.477-.585l-.005-.003c-.305-.186-.694-.271-1.064-.271-.367 0-.749.084-1.04.273a1.256 1.256 0 0 0-.37.342.75.75 0 0 0-.15.418v151.28c-.001.304.212.613.533.767.29.185.676.266 1.041.266.37 0 .76-.084 1.053-.273.38-.226.578-.587.486-.951V21.953a.893.893 0 0 0 .013-.25 1.434 1.434 0 0 0-.015-.128l-.002-.009v-.004l-.246.046Z" fill="#fff" stroke="#44688C" stroke-width=".5" stroke-miterlimit="10"/><g clip-path="url(#a)"><path d="M6.067 1.347 11.68 4.53c-.177-.086-.398-.086-.663.043l-5.612-3.14c.265-.172.486-.172.663-.086Z" fill="#053354"/><path d="M11.016 4.616 5.404 1.433c.044-.043.089-.043.133-.043l5.611 3.183c-.044 0-.088 0-.132.043Zm.133-.086L5.537 1.347c.044 0 .088-.043.088-.043l5.612 3.183c0 .043-.044.043-.088.043Z" fill="#053354"/><path d="m11.237 4.487-5.612-3.14h.088l5.612 3.183c0-.043-.044-.043-.088-.043Zm.088 0L5.713 1.304H5.8l5.612 3.183h-.088Zm.087 0L5.801 1.304h.044l5.612 3.183h-.045Z" fill="#053354"/><path d="M11.457 4.487 5.846 1.304h.044l5.612 3.183h-.045Zm.045 0L5.891 1.304h.044l5.611 3.183h-.044Zm.044 0L5.979 1.304h.044l5.611 3.183h-.088Z" fill="#053354"/><path d="M11.635 4.53 6.023 1.347s.045 0 .045.043l5.611 3.183-.044-.043Zm.045 0L6.068 1.347 11.68 4.53Zm-4.64 7.312-5.612-3.14L.5 5.476 6.112 8.66l.927 3.183Zm-.09-4.989-5.567-3.14 4.02-2.28 5.612 3.183L6.95 6.853Z" fill="#053354"/><path d="M6.112 8.659.5 5.476c-.177-.559.265-1.462.884-1.806l5.612 3.183c-.62.344-1.061 1.247-.884 1.806Z" fill="#053354"/><path d="M6.11 8.659.5 5.476c-.045-.129-.045-.258-.045-.43L6.067 8.23c0 .172 0 .3.044.43Zm-.043-.43L.455 5.046c0-.043 0-.086.044-.129L6.111 8.1c-.044.043-.044.086-.044.129Z" fill="#053354"/><path d="M6.112 8.1.5 4.96c0-.043 0-.086.044-.086l5.612 3.183c-.044 0-.044 0-.044.043Zm0-.086L.5 4.83c0-.043 0-.043.044-.086l5.612 3.183s-.044.043-.044.086Z" fill="#053354"/><path d="M6.155 7.928.543 4.745c0-.043 0-.043.044-.086L6.2 7.842c-.044 0-.044.043-.044.086Z" fill="#053354"/><path d="M6.2 7.842.587 4.659c0-.043 0-.043.044-.086L6.2 7.756v.086Z" fill="#053354"/><path d="M6.2 7.756.587 4.573c0-.043.044-.043.044-.086L6.244 7.67c0 .043 0 .043-.045.086Zm.044-.086L.633 4.487c0-.043.044-.043.044-.086l5.612 3.183c0 .043-.045.043-.045.086Z" fill="#053354"/><path d="M6.287 7.584.676 4.444c0-.043.044-.043.044-.086l5.612 3.183-.045.043Z" fill="#053354"/><path d="M6.33 7.54.72 4.359c0-.043.044-.043.044-.086l5.612 3.183s-.045.043-.045.086Zm.045-.085L.764 4.272c0-.043.044-.043.044-.086l5.611 3.183c0 .043-.044.043-.044.086Zm.045-.086L.81 4.186c0-.043.044-.043.044-.086l5.611 3.183c0 .043 0 .043-.044.086Zm.088-.086L.896 4.1s.045-.043.045-.086l5.611 3.183c0 .043-.044.043-.044.086Z" fill="#053354"/><path d="M6.553 7.197.941 4.014c.045-.043.045-.086.089-.086l5.61 3.183c0 .043-.044.043-.088.086Zm.133-.087L1.074 3.929c.089-.086.177-.172.31-.215l5.611 3.183c-.132.043-.22.129-.31.215Z" fill="#053354"/><path d="M10.15 3.743c.575-.325.986.04.822.771l-.863 4.02.04 12.264-3.657 2.071-.041-12.263L5.546 7.6c-.164-.528.247-1.381.822-1.706l3.782-2.152Z" fill="#fff"/><path d="M5.223 1.262c.04 0 .04 0 0 0h.16s.039 0 .039.038l5.052 2.866h-.04c.24.116.319.387.24.813l-.836 3.833.04 11.695-3.501 1.975-5.052-2.324-.04-12.236L.41 5.056v-.58c0-.04 0-.078.04-.078V4.36c0-.038 0-.038.04-.077 0-.039 0-.039.039-.078 0 0 0-.038.04-.038 0-.039.04-.039.04-.078 0-.038.04-.038.04-.077s.039-.039.039-.078c0-.038.04-.038.04-.077s.04-.039.04-.078c0-.038.04-.038.04-.077.04-.039.04-.077.079-.077l.04-.04.04-.038c.04-.039.119-.077.159-.116l3.66-2.052c.04-.04.08-.04.119-.04h.199l.08-.077h.04Zm4.933 2.865h.12-.12Zm.279 0c-.04 0-.04 0 0 0h-.08.08Zm-.359.039c.04 0 .04 0 0 0ZM5.223.874h-.12c-.039 0-.079 0-.119.039h-.08s-.039 0-.039.039c-.04.038-.12.038-.159.077l-3.66 2.052a.834.834 0 0 0-.239.155l-.04.04c-.04.038-.079.038-.079.077l-.12.116-.079.077c-.04.039-.04.078-.08.116 0 .04-.04.04-.04.078-.039 0-.039.038-.079.077 0 .039-.04.039-.04.078 0 .038-.04.038-.04.077v.039s0 .039-.04.077c0 .039-.039.078-.039.078 0 .038-.04.077-.04.077v.039l.358.116-.397-.116v.039c0 .038-.04.077-.04.116v.077l.398.078-.398-.078v.349c0 .116.04.193.04.27l.835 2.828.04 12.197c0 .155.08.271.238.349l5.053 2.323c.04.039.119.039.159.039.08 0 .12 0 .199-.039l3.5-1.975a.404.404 0 0 0 .2-.348l-.04-11.656.835-3.795c.16-.62-.12-1.045-.398-1.2L5.661.99C5.62.952 5.58.952 5.58.952c-.04 0-.04-.039-.08-.039h-.159c-.08-.039-.08-.039-.119-.039Z" fill="#fff"/></g><defs><clipPath id="a"><path fill="#fff" transform="translate(.012 .874)" d="M0 0h10.997v21.995H0z"/></clipPath></defs></symbol><symbol fill="none" id="sprite-trolley" viewBox="0 0 131 94"><title>trolley</title><path fill-rule="evenodd" clip-rule="evenodd" d="M0 32.5h122.5V38h-4L100 61l-1 1h8v-1.5h4.5v16h-9c-1-3.167-5.1-9.5-13.5-9.5s-12.167 6.333-13 9.5H50c-.833-3-4.7-9-13.5-9s-12.333 6-13 9H21V61h2.5L5 38H0v-5.5ZM14.5 36a1 1 0 1 0 0-2 1 1 0 0 0 0 2Zm11 0a1 1 0 1 0 0-2 1 1 0 0 0 0 2Zm13-1a1 1 0 1 1-2 0 1 1 0 0 1 2 0Zm11 1a1 1 0 1 0 0-2 1 1 0 0 0 0 2Zm13-1a1 1 0 1 1-2 0 1 1 0 0 1 2 0Zm11 1a1 1 0 1 0 0-2 1 1 0 0 0 0 2Zm13-1a1 1 0 1 1-2 0 1 1 0 0 1 2 0Zm3 7a1 1 0 1 0 0-2 1 1 0 0 0 0 2Zm1 6a1 1 0 1 1-2 0 1 1 0 0 1 2 0Zm-1 8a1 1 0 1 0 0-2 1 1 0 0 0 0 2Zm1 6a1 1 0 1 1-2 0 1 1 0 0 1 2 0Zm7-26a1 1 0 1 0 0-2 1 1 0 0 0 0 2Zm13-1a1 1 0 1 1-2 0 1 1 0 0 1 2 0Zm-49 7a1 1 0 1 0 0-2 1 1 0 0 0 0 2Zm1 6a1 1 0 1 1-2 0 1 1 0 0 1 2 0Zm-29-6a1 1 0 1 0 0-2 1 1 0 0 0 0 2Zm1 6a1 1 0 1 1-2 0 1 1 0 0 1 2 0Zm-1 8a1 1 0 1 0 0-2 1 1 0 0 0 0 2Zm1 6a1 1 0 1 1-2 0 1 1 0 0 1 2 0Zm27 1a1 1 0 1 0 0-2 1 1 0 0 0 0 2Zm1 5a1 1 0 1 1-2 0 1 1 0 0 1 2 0Z" fill="#fff"/><path d="M126.5 67h-13v4.5h13v6h4.5V61h-4.5v6ZM120 30.5H6.5l7.5-8 4-1.5-1.5-4 5.5-1.5h12.188l1.812-4 7.5-3v-7l5-1.5L56 3l12-.5 4.5 5 14 2.5 2 5.5 7 3L100 23h5.5l6.5 1.5 1 3.5h4l3 2.5Z" fill="#fff"/><path fill-rule="evenodd" clip-rule="evenodd" class="page__trolley-wheels" d="M37 94c6.904 0 12.5-5.596 12.5-12.5S43.904 69 37 69s-12.5 5.596-12.5 12.5S30.096 94 37 94Zm0-8a4.5 4.5 0 1 0 0-9 4.5 4.5 0 0 0 0 9Zm52 8c6.904 0 12.5-5.596 12.5-12.5S95.904 69 89 69s-12.5 5.596-12.5 12.5S82.096 94 89 94Zm0-8a4.5 4.5 0 1 0 0-9 4.5 4.5 0 0 0 0 9Z" fill="#fff"/></symbol><symbol fill="none" id="sprite-vr" viewBox="0 0 19 22"><title>vr</title><path d="M13.627 21.528v-2.5m1.5-3.5c-.167 1.334-1.421 5-5.5 5-4.5 0-5.667-3-6-5m1.5 6v-2.5M15.626 6.529c0-2-1.3-5.9-6.5-5.5-5.2.4-6.166 3.833-6 5.5m-.5 1.5v4m13.5-4v4m-14-5.5h14.5c.334 0 1 .3 1 1.5v5c0 .5-1.1 1.6-5.5 2-.5 0-1-1-2.5-1-1.2 0-2.166.666-2.5 1-1.5 0-4.7-.3-5.5-1.5-.8-1.2-.666-4.834-.5-6.5.036-.4.682-.5 1-.5Z" stroke="#fff"/></symbol></svg>